<svg xmlns="http://www.w3.org/2000/svg" width="17.1" height="17.606" viewBox="0 0 17.1 17.606">
  <g id="noun_Arrow_2367821_1_" data-name="noun_Arrow_2367821 (1)" transform="translate(53.345 -60.064) rotate(90)">
    <g id="Grupo_325" data-name="Grupo 325" transform="translate(60.064 44.23)">
      <path id="Trazado_28617" data-name="Trazado 28617" d="M46.013,50.246H31c-.361,0-.654-.446-.654-1s.293-1,.654-1H46.013c.361,0,.654.446.654,1S46.374,50.246,46.013,50.246Z" transform="translate(-30.341 -48.25)" fill="#01B0D3"/>
    </g>
    <g id="Grupo_326" data-name="Grupo 326" transform="translate(68.356 36.244)">
      <path id="Trazado_28618" data-name="Trazado 28618" d="M56.68,53.345a1,1,0,0,1-.7-1.713l6.623-6.444-6.663-7.272a1,1,0,1,1,1.471-1.348l7.318,7.986a1,1,0,0,1-.04,1.389l-7.317,7.119A.993.993,0,0,1,56.68,53.345Z" transform="translate(-55.682 -36.244)" fill="#01B0D3"/>
    </g>
  </g>
</svg>
