<svg xmlns="http://www.w3.org/2000/svg" width="14.588" height="14.588" viewBox="0 0 14.588 14.588">
  <path id="Icon_awesome-check-circle" data-name="Icon awesome-check-circle" d="M15.151,7.857A7.294,7.294,0,1,1,7.857.563,7.294,7.294,0,0,1,15.151,7.857ZM7.013,11.719l5.412-5.412a.471.471,0,0,0,0-.665l-.665-.665a.471.471,0,0,0-.666,0L6.68,9.389,4.62,7.329a.471.471,0,0,0-.666,0l-.665.665a.471.471,0,0,0,0,.665l3.059,3.059a.471.471,0,0,0,.666,0Z" transform="translate(-0.563 -0.563)" fill="#ae38ab"/>
</svg>
