<svg xmlns="http://www.w3.org/2000/svg" width="19.343" height="19.343" viewBox="0 0 19.343 19.343">
  <path id="Icon_awesome-check-circle" data-name="Icon awesome-check-circle" d="M19.905,10.234A9.671,9.671,0,1,1,10.234.563,9.671,9.671,0,0,1,19.905,10.234ZM9.115,15.355l7.176-7.176a.624.624,0,0,0,0-.882l-.882-.882a.624.624,0,0,0-.882,0L8.674,12.266,5.942,9.534a.624.624,0,0,0-.882,0l-.882.882a.624.624,0,0,0,0,.882l4.056,4.056a.624.624,0,0,0,.882,0Z" transform="translate(-0.563 -0.563)" fill="#01b0d3"/>
</svg>
