<svg id="Grupo_100" data-name="Grupo 100" xmlns="http://www.w3.org/2000/svg" width="21.268" height="21.268" viewBox="0 0 21.268 21.268">
  <path id="Trazado_177" data-name="Trazado 177" d="M28.632,18c5.862,0,10.634,4.473,10.634,9.969a9.487,9.487,0,0,1-1.6,5.244,9.444,9.444,0,0,0,.7,1.253l.445.665a2.658,2.658,0,0,1-2.21,4.137,9.188,9.188,0,0,1-5.28-1.662,11.2,11.2,0,0,1-2.7.332C22.77,37.938,18,33.466,18,27.969S22.77,18,28.632,18Zm0,17.28a8.55,8.55,0,0,0,3.27-.648,6.6,6.6,0,0,0,4.705,1.977l-.445-.665a12.814,12.814,0,0,1-1.515-3.18,6.935,6.935,0,0,0,1.961-4.8c0-4.038-3.572-7.311-7.975-7.311s-7.975,3.273-7.975,7.311S24.229,35.28,28.632,35.28Z" transform="translate(-17.998 -18)" fill="#fff"/>
  <rect id="Rectángulo_99" data-name="Rectángulo 99" width="3" height="4" transform="translate(9 5)" fill="#fff"/>
  <ellipse id="Elipse_20" data-name="Elipse 20" cx="1.5" cy="1" rx="1.5" ry="1" transform="translate(9 12)" fill="#fff"/>
</svg>
