<svg xmlns="http://www.w3.org/2000/svg" xmlns:xlink="http://www.w3.org/1999/xlink" width="498" height="249" viewBox="0 0 498 249">
  <defs>
    <clipPath id="clip-path">
      <rect id="Rectángulo_116" data-name="Rectángulo 116" width="498" height="249" transform="translate(767 5571)" fill="#fff" stroke="#707070" stroke-width="1"/>
    </clipPath>
  </defs>
  <g id="Enmascarar_grupo_5" data-name="Enmascarar grupo 5" transform="translate(-767 -5571)" clip-path="url(#clip-path)">
    <path id="Trazado_172" data-name="Trazado 172" d="M551.274,728.7A157.277,157.277,0,0,0,592.209,622.42c0-87.353-71.067-158.42-158.42-158.42s-158.42,71.067-158.42,158.42,71.067,158.42,158.42,158.42h150.5a7.919,7.919,0,0,0,5.6-13.521ZM433.789,765c-78.616,0-142.578-63.962-142.578-142.578s63.962-142.578,142.578-142.578S576.367,543.8,576.367,622.42a141.685,141.685,0,0,1-41.76,100.819,7.913,7.913,0,0,0,0,11.2L565.167,765Zm23.985,33.355a140.82,140.82,0,0,1-87.353,30.013H239.043L269.6,797.807a7.912,7.912,0,0,0,0-11.2,142.285,142.285,0,0,1-8.966-191.562,7.92,7.92,0,1,0-12.19-10.115,158.112,158.112,0,0,0,4.491,207.134l-38.615,38.623a7.919,7.919,0,0,0,5.6,13.521h150.5a156.51,156.51,0,0,0,97.088-33.355,7.922,7.922,0,0,0-9.735-12.5ZM433.789,582.815a39.6,39.6,0,1,0,39.6,39.6A39.65,39.65,0,0,0,433.789,582.815Zm0,63.368a23.763,23.763,0,1,1,23.763-23.763A23.792,23.792,0,0,1,433.789,646.183Zm83.17-47.526h-7.652a79.083,79.083,0,0,0-5.331-12.824l5.426-5.426a11.89,11.89,0,0,0,0-16.8l-16.809-16.8a11.875,11.875,0,0,0-16.8,0l-5.418,5.426a78.59,78.59,0,0,0-12.824-5.331V539.25a11.9,11.9,0,0,0-11.882-11.882H421.908a11.9,11.9,0,0,0-11.881,11.882V546.9a79.467,79.467,0,0,0-12.824,5.331l-5.418-5.426a11.875,11.875,0,0,0-16.8,0l-16.809,16.8a11.89,11.89,0,0,0,0,16.8l5.426,5.426a78.237,78.237,0,0,0-5.331,12.824h-7.652a11.9,11.9,0,0,0-11.881,11.882V634.3a11.9,11.9,0,0,0,11.881,11.881h7.652a79.064,79.064,0,0,0,5.331,12.824l-5.426,5.426a11.89,11.89,0,0,0,0,16.8l16.809,16.8a11.876,11.876,0,0,0,16.8,0l5.418-5.426a78.6,78.6,0,0,0,12.824,5.331v7.652a11.9,11.9,0,0,0,11.881,11.881h23.763a11.9,11.9,0,0,0,11.882-11.881v-7.652a79.481,79.481,0,0,0,12.824-5.331l5.418,5.426a11.876,11.876,0,0,0,16.8,0l16.809-16.8a11.89,11.89,0,0,0,0-16.8l-5.426-5.426a78.227,78.227,0,0,0,5.331-12.824h7.652A11.9,11.9,0,0,0,528.841,634.3V610.539A11.9,11.9,0,0,0,516.96,598.657ZM513,630.341h-6.725a11.9,11.9,0,0,0-11.406,8.776,62.839,62.839,0,0,1-6.091,14.67,11.891,11.891,0,0,0,1.861,14.281l4.761,4.761-11.2,11.2-4.76-4.753a11.865,11.865,0,0,0-14.282-1.869,63.062,63.062,0,0,1-14.646,6.091,11.867,11.867,0,0,0-8.8,11.406v6.725H425.868v-6.725a11.858,11.858,0,0,0-8.769-11.4,63.4,63.4,0,0,1-14.678-6.091,11.85,11.85,0,0,0-14.274,1.854l-4.768,4.761-11.2-11.2,4.769-4.768a11.889,11.889,0,0,0,1.853-14.274,63.042,63.042,0,0,1-6.1-14.686,11.884,11.884,0,0,0-11.4-8.76h-6.725V614.5H361.3a11.9,11.9,0,0,0,11.406-8.776,62.861,62.861,0,0,1,6.091-14.67,11.891,11.891,0,0,0-1.861-14.281l-4.761-4.761,11.2-11.2,4.761,4.753a11.877,11.877,0,0,0,14.281,1.87,63.065,63.065,0,0,1,14.646-6.092,11.867,11.867,0,0,0,8.8-11.406V543.21H441.71v6.725a11.859,11.859,0,0,0,8.768,11.4,63.211,63.211,0,0,1,14.67,6.091,11.848,11.848,0,0,0,14.281-1.854l4.769-4.761,11.2,11.2-4.768,4.768a11.888,11.888,0,0,0-1.854,14.274,63.046,63.046,0,0,1,6.1,14.686,11.884,11.884,0,0,0,11.4,8.76H513Z" transform="translate(600.789 5055)" fill="#fff" stroke="#007fe9" stroke-width="4"/>
  </g>
</svg>
