<svg id="Grupo_203" data-name="Grupo 203" xmlns="http://www.w3.org/2000/svg" width="303.414" height="60.099" viewBox="0 0 303.414 60.099">
  <g id="Grupo_197" data-name="Grupo 197" transform="translate(71.309 12.623)">
    <path id="Trazado_378" data-name="Trazado 378" d="M151.4,30.1h5.181c3.674,0,6.453,1.413,6.453,5.087v.094c0,3.156-2.072,4.616-4.9,4.993l6.029,8.76h-1.648l-5.935-8.619h-3.674v8.619H151.4Zm5.275,9.137c3.061,0,4.9-1.177,4.9-3.909v-.094c0-2.92-1.931-3.862-4.9-3.862h-3.768v7.913h3.768Z" transform="translate(-151.4 -28.546)" fill="#54565a"/>
    <path id="Trazado_379" data-name="Trazado 379" d="M181.4,47.7v-.236c0-4.192,2.638-7.065,6.358-7.065,3.344,0,6.076,2.167,6.076,6.735v.518H182.86c.047,3.721,1.837,5.84,5.134,5.84,2.308,0,3.862-.942,4.333-2.873h1.413c-.565,2.638-2.779,4.1-5.746,4.1C183.99,54.718,181.4,51.892,181.4,47.7Zm10.974-1.13c-.141-3.391-1.884-4.945-4.616-4.945-2.685,0-4.569,1.884-4.851,4.945Z" transform="translate(-167.27 -33.995)" fill="#54565a"/>
    <path id="Trazado_380" data-name="Trazado 380" d="M212.4,40.6v-.235c0-4.286,2.779-7.112,6.453-7.112a5.318,5.318,0,0,1,5.087,3.3V26.8h1.413V47.288h-1.413v-3.2a5.963,5.963,0,0,1-5.275,3.438C215.085,47.524,212.4,44.98,212.4,40.6Zm11.492-.141V40.27c0-3.815-2.072-5.84-4.945-5.84-2.967,0-5.134,2.167-5.134,5.887v.235c0,3.768,2.167,5.793,4.9,5.793C221.537,46.346,223.892,44.274,223.892,40.459Z" transform="translate(-183.669 -26.8)" fill="#54565a"/>
    <path id="Trazado_381" data-name="Trazado 381" d="M260.3,40.6v-.235c0-4.286,2.779-7.112,6.453-7.112a5.2,5.2,0,0,1,5.04,3.3V26.8h1.413V47.288h-1.413v-3.2a5.963,5.963,0,0,1-5.275,3.438C262.985,47.524,260.3,44.98,260.3,40.6Zm11.492-.141V40.27c0-3.815-2.072-5.84-4.945-5.84-2.967,0-5.134,2.167-5.134,5.887v.235c0,3.768,2.167,5.793,4.9,5.793C269.437,46.346,271.792,44.274,271.792,40.459Z" transform="translate(-209.009 -26.8)" fill="#54565a"/>
    <path id="Trazado_382" data-name="Trazado 382" d="M294.5,47.7v-.236c0-4.192,2.638-7.065,6.358-7.065,3.344,0,6.076,2.167,6.076,6.735v.518H295.96c.047,3.721,1.837,5.84,5.134,5.84,2.308,0,3.862-.942,4.333-2.873h1.413c-.565,2.638-2.779,4.1-5.746,4.1C297.043,54.718,294.5,51.892,294.5,47.7Zm10.974-1.13c-.141-3.391-1.931-4.945-4.616-4.945s-4.569,1.884-4.851,4.945Z" transform="translate(-227.101 -33.995)" fill="#54565a"/>
    <path id="Trazado_383" data-name="Trazado 383" d="M339,43.406h1.46c.33,2.4,1.648,4.427,5.6,4.427,2.967,0,4.9-1.743,4.9-4.051,0-2.638-1.272-3.58-5.087-4.145-4.145-.612-6.123-1.978-6.123-4.993,0-2.92,2.4-4.945,5.982-4.945,3.532,0,5.652,1.743,6.076,4.757h-1.366c-.471-2.355-1.931-3.532-4.757-3.532-2.92,0-4.569,1.366-4.569,3.627,0,2.072,1.036,3.2,4.993,3.768,4.239.612,6.264,1.837,6.264,5.369,0,3.014-2.5,5.369-6.311,5.369C341.4,49.058,339.424,46.514,339,43.406Z" transform="translate(-250.642 -28.334)" fill="#54565a"/>
    <path id="Trazado_384" data-name="Trazado 384" d="M372.8,50.815c0-3.2,3.061-4.192,6.5-4.192h2.873V45.4c0-2.59-1.083-3.721-3.485-3.721-2.072,0-3.579.895-3.909,2.967h-1.366c.33-2.92,2.685-4.145,5.322-4.145,2.873,0,4.851,1.366,4.851,4.9v9.184h-1.413V52.463a5.213,5.213,0,0,1-4.71,2.308C374.778,54.771,372.8,53.452,372.8,50.815Zm9.373-.754V47.706h-2.826c-2.873,0-5.134.612-5.134,3.109,0,1.79,1.13,2.826,3.391,2.826C380.148,53.641,382.173,52.134,382.173,50.061Z" transform="translate(-268.522 -34.047)" fill="#54565a"/>
    <path id="Trazado_385" data-name="Trazado 385" d="M404.6,26.8h1.413V47.288H404.6Z" transform="translate(-285.345 -26.8)" fill="#54565a"/>
    <path id="Trazado_386" data-name="Trazado 386" d="M416.4,49.66V40.9h1.413v8.713c0,2.92,1.366,4.145,3.768,4.145a4.32,4.32,0,0,0,4.521-4.427V40.9h1.413V54.747H426.1V52.11a5.169,5.169,0,0,1-4.851,2.873C418.425,54.983,416.4,53.475,416.4,49.66Z" transform="translate(-291.587 -34.259)" fill="#54565a"/>
    <path id="Trazado_387" data-name="Trazado 387" d="M446.9,40.6v-.235c0-4.286,2.779-7.112,6.453-7.112a5.2,5.2,0,0,1,5.04,3.3V26.8h1.413V47.288h-1.413v-3.2a5.963,5.963,0,0,1-5.275,3.438C449.585,47.524,446.9,44.98,446.9,40.6Zm11.539-.141V40.27c0-3.815-2.072-5.84-4.945-5.84-2.967,0-5.134,2.167-5.134,5.887v.235c0,3.768,2.167,5.793,4.9,5.793C456.037,46.346,458.439,44.274,458.439,40.459Z" transform="translate(-307.722 -26.8)" fill="#54565a"/>
  </g>
  <path id="Trazado_388" data-name="Trazado 388" d="M61.371,55.242a.471.471,0,1,0-.471-.471A.507.507,0,0,0,61.371,55.242Z" transform="translate(-32.215 -28.725)" fill="#2a7de1"/>
  <path id="Trazado_389" data-name="Trazado 389" d="M31.141,93.8a.141.141,0,1,0,.141.141A.212.212,0,0,0,31.141,93.8Z" transform="translate(-16.398 -49.621)" fill="#2a7de1"/>
  <path id="Trazado_390" data-name="Trazado 390" d="M43.141,94.083A.141.141,0,1,0,43,93.941.125.125,0,0,0,43.141,94.083Z" transform="translate(-22.746 -49.621)" fill="#2a7de1"/>
  <path id="Trazado_391" data-name="Trazado 391" d="M14.294,82.562l1.083.612c0,.141-.047.283-.047.424a2.876,2.876,0,0,0,2.5,2.92c.141.047.235.047.283.094L17.874,89.3v.047a1.135,1.135,0,0,0,2.261,0V89.3l-.283-2.779H19.8V86.33a1.079,1.079,0,0,0-.33-.754,1.329,1.329,0,0,0,.706-.188,1.6,1.6,0,0,0,.659-.895l.094-.33.754-.424v.188a1.635,1.635,0,0,0,.471,1.177v.706a2.152,2.152,0,0,0-.942.518l-.188.188.047.377a.474.474,0,0,1,.047.141,1.389,1.389,0,0,0,1.225.659c.235,0,.377-.047.518-.047h0a2.059,2.059,0,0,1,.283.471,1.151,1.151,0,0,0,.424.518,1.52,1.52,0,0,0-.377.989,1.449,1.449,0,0,0,.565,1.083,1.2,1.2,0,0,0-.235.754,1.408,1.408,0,0,0,.518,1.083,1.109,1.109,0,0,0-.094.377,1.072,1.072,0,0,0,.471.895.674.674,0,0,0,.659.659.716.716,0,0,0,.706-.659,1.072,1.072,0,0,0,.471-.895,1.108,1.108,0,0,0-.094-.377,1.408,1.408,0,0,0,.518-1.083,1.423,1.423,0,0,0-.235-.754,1.449,1.449,0,0,0,.565-1.083,1.52,1.52,0,0,0-.377-.989,2.266,2.266,0,0,0,.424-.518c.094-.188.235-.377.283-.471h0a1.611,1.611,0,0,0,.518.047,1.3,1.3,0,0,0,1.225-.659l.047-.141.047-.377-.235-.188a3.544,3.544,0,0,0-.8-.471v-.706a1.655,1.655,0,0,0,.612-1.272V83.41H27.105a2.623,2.623,0,0,0-3.862,0h-.989l1.46-.848c.047-.047.094-.141.047-.188s-.141-.094-.188-.047l-2.779,1.6-.235-.047a1.272,1.272,0,0,0,.141-.565l.047-.33,2.025-1.7a.133.133,0,0,0-.188-.188l-2.025,1.7h-.094c0-.047.047-.141.047-.188l.659-.8-.235-.235-.141-.141.895-1.083a.133.133,0,0,0-.188-.188l-.895,1.083a3.612,3.612,0,0,0-2.072-.659,3.669,3.669,0,0,0-1.46.283l-.612-.659a.133.133,0,0,0-.188.188l.565.706a3.075,3.075,0,0,0-.754.612l-.706-.612a.133.133,0,1,0-.188.188l.706.612a2.607,2.607,0,0,0-.471,1.036l-1.036-.565c-.047-.047-.141,0-.188.047A.678.678,0,0,0,14.294,82.562Zm9.279,5.275a2.276,2.276,0,0,0-.471-.706c-.188-.188-.424,0-.8,0a.877.877,0,0,1-.706-.283l-.047-.141a1.584,1.584,0,0,1,.895-.424c.471,0,1.036.235,1.6,1.319a.948.948,0,0,0,.518.424L24,88.308A1.031,1.031,0,0,1,23.573,87.838Zm.283-1.413h.283c0,.141.047.565.047.565A4.124,4.124,0,0,0,23.855,86.425Zm1.7,5.84a1.337,1.337,0,0,0-.424.283.177.177,0,0,0,0,.283c.094.094.235.094.283,0a1.465,1.465,0,0,1,.283-.188c0,.047.047.141.047.188a.6.6,0,0,1-.471.565v.283a.188.188,0,0,1-.377,0V93.4a.6.6,0,0,1-.471-.565.681.681,0,0,1,.094-.33,3.33,3.33,0,0,1,.942-.8.046.046,0,0,0,.047-.047h0a.36.36,0,0,0,.094-.236.259.259,0,0,0-.141-.235c.047,0,.094-.047.141-.047.141-.047.235-.141.377-.188a.857.857,0,0,1,.188.518C26.163,91.841,25.881,92.076,25.551,92.265Zm.094-1.7h0a.357.357,0,0,1-.188.094c-.235.141-.471.235-.659.377a.046.046,0,0,0-.047.047H24.7c-.094.094-.188.188-.188.283,0,.141.094.235.235.33a1.434,1.434,0,0,0-.377.377A.815.815,0,0,1,24,91.37a.894.894,0,0,1,.377-.706h0a4.472,4.472,0,0,1,.8-.471l.283-.141c.283-.141.565-.33.565-.518a.542.542,0,0,0-.377-.471c.188-.094.377-.141.565-.235a1.054,1.054,0,0,1,.377.706A1.587,1.587,0,0,1,25.645,90.569Zm-.8-1.036a.235.235,0,1,1,.235.236A.223.223,0,0,1,24.844,89.533Zm3.768-2.826v.141a.98.98,0,0,1-.706.283c-.377,0-.612-.188-.8,0a3.048,3.048,0,0,0-.471.706,1.624,1.624,0,0,1-.565.565c-.236.141-.518.235-.754.377a5.525,5.525,0,0,0-.518.235h0c-.33.141-.565.33-.565.565,0,.188.188.33.424.471a1.692,1.692,0,0,0-.471.33.912.912,0,0,1-.471-.8,1,1,0,0,1,.565-.895c.283-.141.565-.283.8-.377.283-.141.518-.236.706-.33h0a.742.742,0,0,0,.33-.33c.518-1.083,1.13-1.319,1.6-1.319A1.764,1.764,0,0,1,28.612,86.707Zm-3.956-.283H25.5l-.047,1.225a6.306,6.306,0,0,1-.565.283c-.047,0-.094.047-.188.094Zm1.272.565s.047-.424.047-.565h.283C26.21,86.519,25.928,86.99,25.928,86.99Zm-3.815-3.156h1.6a.3.3,0,0,1,.283.283v.377h.377v-.377a.671.671,0,0,0-.424-.612l-.141-.047.094-.094a2.025,2.025,0,0,1,1.272-.377,2.309,2.309,0,0,1,1.319.424l.094.047-.094.047a.571.571,0,0,0-.33.565v.377h.377V84.07a.3.3,0,0,1,.283-.283h1.6v.047a1.037,1.037,0,0,1-.047.377H27.294V84.4h.989a.916.916,0,0,1-.848.518h-.424v.377h.8v.612H22.631v-.612h.895v-.377H23.1a.916.916,0,0,1-.848-.518h.989v-.094H22.16a1.3,1.3,0,0,1-.047-.424Zm-2.5,5.511a.679.679,0,0,1-1.319,0l.235-2.355h.8Zm.33-4.38a1.278,1.278,0,0,1-.895.094,1.4,1.4,0,0,1,.518-.706,1.278,1.278,0,0,1,.895-.094A1.237,1.237,0,0,1,19.946,84.964Zm-.471-1.554a1.288,1.288,0,0,1,.848-.235,1.343,1.343,0,0,1-.377.8,1.288,1.288,0,0,1-.848.235A1.343,1.343,0,0,1,19.475,83.41Zm-.094-.942a1.2,1.2,0,0,1,.706-.377,1.181,1.181,0,0,1-.235.8.947.947,0,0,1-.706.33A1.081,1.081,0,0,1,19.381,82.468Zm-.848-1.319a3.046,3.046,0,0,1,2.072.8l-.094.141a2.575,2.575,0,0,0-1.366-.377,2.011,2.011,0,0,0-2.167,1.978,1.915,1.915,0,0,0,1.554,1.931c.612.141.754.518.754.659v.188h-.565c-.047-.235-.235-.33-.754-.471a2.382,2.382,0,0,1-2.119-2.4A2.523,2.523,0,0,1,18.533,81.149Zm-.047,2.261a1.343,1.343,0,0,1,.377.8,1.288,1.288,0,0,1-.848-.235,1.343,1.343,0,0,1-.377-.8A1.288,1.288,0,0,1,18.486,83.41Zm-.612-1.272a1.092,1.092,0,0,1,.706.377,1.081,1.081,0,0,1,.235.754,1.2,1.2,0,0,1-.706-.33A1.181,1.181,0,0,1,17.874,82.138Zm.518,2.214a1.4,1.4,0,0,1,.518.706,1.272,1.272,0,0,1-.895-.094,1.4,1.4,0,0,1-.518-.706A1.278,1.278,0,0,1,18.392,84.352Z" transform="translate(-7.511 -42.387)" fill="#2a7de1"/>
  <path id="Trazado_392" data-name="Trazado 392" d="M60.5,85.769l-.942-2.025A.964.964,0,0,0,60.4,82.8a.945.945,0,0,0-.942-.942.971.971,0,0,0-.848.518,5.424,5.424,0,0,1-2.92-.518.6.6,0,0,0,.047-.283,1.177,1.177,0,1,0-2.355,0,.6.6,0,0,0,.047.283,5.713,5.713,0,0,1-2.873.518.89.89,0,0,0-.848-.518.945.945,0,0,0-.942.942.964.964,0,0,0,.848.942l-.895,2.025H48.3v.471a1.689,1.689,0,0,0,1.7,1.7,1.449,1.449,0,0,0,.895-.283l-.989,1.46h0l-.141.754,3.156.612c-.047.141.283.377.471.424a.667.667,0,0,0,.518-.047L54,92.081v-.047a.659.659,0,0,0,1.319,0h0l.047-.848,1.79.565,1.554-3.815V87.7a1.293,1.293,0,0,0,.612.094,1.689,1.689,0,0,0,1.7-1.7v-.471H60.5Zm-.424,0h-1.7l.848-1.884Zm-2.167,1.46a1.375,1.375,0,0,1-.424-.094,2.815,2.815,0,0,1-.754-.377,2.266,2.266,0,0,0-.754-.377c-.094,0-.188-.047-.283-.047l.188-2.638h3.061l-.895,2.025h-.471v.471A1.522,1.522,0,0,0,57.908,87.229Zm-7.96-3.344.848,1.884H49.1Zm1.225,1.884-.895-2.025H53.34l.188,2.4a2.293,2.293,0,0,1-.565-.047c-.377-.094-.612-.235-.612-.283l-.188-.141-.141.188-.424.659c0-.094.047-.188.047-.283v-.471Zm-1.225,1.7a1.207,1.207,0,0,1-1.225-1.177h2.4A1.2,1.2,0,0,1,49.948,87.465Zm3.58,2.779a1.207,1.207,0,0,0-.612-.659,1.9,1.9,0,0,0-.895,0,3.049,3.049,0,0,1-1.13-.047,1.063,1.063,0,0,1-.518-.236c.188-.283,1.743-2.732,1.931-3.061.141.047.33.141.612.236a3.338,3.338,0,0,0,.659.047l.235,3.58A.493.493,0,0,0,53.528,90.244Zm1.225,1.884a.188.188,0,1,1-.377,0l-.612-8.855H49.713a.471.471,0,1,1,.471-.471v.047a6.3,6.3,0,0,0,3.909-.8.837.837,0,0,1-.188-.471.706.706,0,1,1,1.413,0,.837.837,0,0,1-.188.471,6.3,6.3,0,0,0,3.909.8V82.8a.471.471,0,1,1,.471.471H55.459Zm1.931-1.083A2.737,2.737,0,0,1,56.213,91a6.8,6.8,0,0,1-.895-.518l.283-3.721a.283.283,0,0,1,.188.047,1.551,1.551,0,0,1,.612.33,3.17,3.17,0,0,0,.895.424,5.76,5.76,0,0,0,.8.141C57.955,88.171,56.684,91.044,56.684,91.044Zm2.59-3.58a1.207,1.207,0,0,1-1.225-1.177h2.4A1.2,1.2,0,0,1,59.274,87.465Z" transform="translate(-25.55 -42.532)" fill="#2a7de1"/>
  <path id="Trazado_393" data-name="Trazado 393" d="M18.8,56.43a3.347,3.347,0,0,0,2.59,3.109.627.627,0,0,0,.283.424c-.094.047-.141.141-.188.188a.648.648,0,0,0-.047.518,1.026,1.026,0,0,0,.235.377,1.273,1.273,0,0,0-.754,1.036v.377h3.768v-.377c0-.612-.612-.895-.895-1.13-.047-.047-.141-.094-.188-.141v-.047s.659-.141.659-.706a.692.692,0,0,0-.33-.565c.094-.047.141-.141.188-.188a.648.648,0,0,0,.047-.518l-.141-.283a2.7,2.7,0,0,1,.33-.188,2.365,2.365,0,0,0,1.272-1.884V55.394H24.546l.047-.33a2.218,2.218,0,0,1,.424-.141c.141,0,.33.141.518.141.141,0,.235-.094.235-.141s-.094-.047-.188-.047c-.141,0-.33-.188-.565-.188-.094,0-.283.047-.377.047-.094-.094-.424-.377-.612-.518h2.261v8.242h2.449V54.216h2.543v-2.5H28.738V48.8H26.289v2.92H23.745v2.355a1.844,1.844,0,0,0-.612-.141,4.335,4.335,0,0,0-.8.094,8.817,8.817,0,0,0-1.13-.094A2.373,2.373,0,0,0,18.8,56.43Zm5.416-4.192H26.76v-2.92h1.46v2.92h2.543V53.7H28.22v8.337H26.76V53.7H24.216v-1.46Zm0,9.75v.047H21.485v-.047c0-.283.659-.612.942-.895l.706-.188C23.18,61.187,24.216,61.658,24.216,61.988ZM22,59.162l1.554-.424a.269.269,0,0,1,.141.518l-1.554.424A.269.269,0,1,1,22,59.162Zm1.743,1.177-1.554.424a.269.269,0,0,1-.141-.518l1.554-.424a.269.269,0,1,1,.141.518Zm1.46-4.427v.518a1.887,1.887,0,0,1-1.036,1.46c-.188.141-.612.424-.612.424l-1.036.283a3.493,3.493,0,0,0-.895-.706c-.471-.377-1.036-.754-1.036-1.46v-.518Zm-4-1.507a6.493,6.493,0,0,1,1.036.094,4.482,4.482,0,0,1,.848-.094,1.644,1.644,0,0,1,.942.471l-.047.236a1.166,1.166,0,0,1-.895.283c-.377,0-.706-.283-.989-.33a3.131,3.131,0,0,0-.989-.141,1.412,1.412,0,0,0-1.319,1.46,1.965,1.965,0,0,0,.942,1.6c.565.424.942.565,1.083.706H21.72a.6.6,0,0,0-.33.236,2.825,2.825,0,0,1-2.214-2.59A2.146,2.146,0,0,1,21.2,54.4Z" transform="translate(-9.944 -25.816)" fill="#2a7de1"/>
  <path id="Trazado_394" data-name="Trazado 394" d="M61.223,58.088a2.029,2.029,0,0,0-2.167-2.072H57.408l-.8-2.072a1.89,1.89,0,0,0,.141-.706,1.837,1.837,0,0,0-3.674,0,1.89,1.89,0,0,0,.141.706l-.8,2.072H50.767A2,2,0,0,0,48.6,58.088a1.789,1.789,0,0,0,1.79,1.79,2.364,2.364,0,0,0,.565-.094L50.2,61.668l-.659,1.648c-.141.424.094.518.094.518l.377.188c.236.141.424-.047.518-.236l.424-.754v.188h7.771v-.188l.424.754c.141.188.33.377.518.236l.377-.188s.283-.094.094-.518l-.659-1.648-.754-1.884a2.364,2.364,0,0,0,.565.094A1.825,1.825,0,0,0,61.223,58.088Zm-6.358-6.123a1.272,1.272,0,1,1-1.272,1.272A1.266,1.266,0,0,1,54.864,51.965ZM50.3,59.36a1.266,1.266,0,0,1-1.272-1.272,1.51,1.51,0,0,1,1.648-1.554h1.46l-.518,1.319a1.178,1.178,0,0,0-1.13-.754.928.928,0,0,0-.989.942.816.816,0,0,0,.848.848.283.283,0,0,0,0-.565.267.267,0,0,1-.283-.283.381.381,0,0,1,.424-.377c.424,0,.706.283.706.8A.817.817,0,0,1,50.3,59.36Zm-.188,4.192-.141-.094s2.449-6.264,3.532-9a1.792,1.792,0,0,0,.612.424l.471.8Zm4.569-7.018h.377l.895,1.554H53.781Zm-2.308,6.217h-.895v-.659l.895-1.554Zm4.38,0h-.895v-3.3a.283.283,0,0,0-.565,0v3.3h-.895v-3.3a.283.283,0,0,0-.565,0v3.3h-.895v-3.2l.518-.895H56.23l.518.895Zm1.507,0H57.36V60.537l.895,1.554Zm1.46.706-.094.094L54.77,55.074h.094a1.853,1.853,0,0,0,1.366-.612C57.313,57.24,59.763,63.457,59.715,63.457Zm-1.225-5.04c0-.518.283-.8.706-.8a.385.385,0,0,1,.424.377c0,.283-.188.283-.283.283a.3.3,0,0,0-.283.283.271.271,0,0,0,.283.283.816.816,0,0,0,.848-.848.956.956,0,0,0-.989-.942,1.178,1.178,0,0,0-1.13.754l-.518-1.319h1.46a1.486,1.486,0,0,1,1.648,1.554,1.266,1.266,0,0,1-1.272,1.272A.817.817,0,0,1,58.491,58.418Z" transform="translate(-25.709 -27.191)" fill="#2a7de1"/>
  <path id="Trazado_395" data-name="Trazado 395" d="M28.041,61.683a.141.141,0,1,0-.141-.141A.15.15,0,0,0,28.041,61.683Z" transform="translate(-14.758 -32.481)" fill="#2a7de1"/>
  <path id="Trazado_396" data-name="Trazado 396" d="M60.641,26.563a1.063,1.063,0,0,0,.236.518,1.179,1.179,0,0,0,.518.235h0v-.235a2.119,2.119,0,0,1,.942-1.554.474.474,0,0,0,.047-.141l-.094-.612c0-.094,0-.141-.141-.094l-.565.094A5.5,5.5,0,0,1,60.5,25.81,1.182,1.182,0,0,1,60.641,26.563Zm.33-.659a7.333,7.333,0,0,0,.848-.8l.047-.047.094-.047v.047c0,.094.047.141.047.235v.047h0a2.146,2.146,0,0,0-.895,1.319l-.047.141-.047-.141v-.377a1.17,1.17,0,0,0-.047-.377Z" transform="translate(-32.004 -13.046)" fill="#2a7de1"/>
  <path id="Trazado_397" data-name="Trazado 397" d="M64.1,22.789a7.706,7.706,0,0,1,.047.942.958.958,0,0,0,.33-.565,4.227,4.227,0,0,0-.141-.895c-.047-.047-.377-.471-.518-.471a.368.368,0,0,0-.235.283c-.047.141-.283.424-.283.471V22.6C63.583,22.648,64.054,22.648,64.1,22.789Z" transform="translate(-33.485 -11.532)" fill="#2a7de1"/>
  <path id="Trazado_398" data-name="Trazado 398" d="M21.1,31.413l.424.518c.235-.188.471-.33.706-.518v-.094a.353.353,0,0,1,.047-.236.668.668,0,0,1,.377-.424.6.6,0,0,1,.283-.047.675.675,0,0,1,.518.235,4.41,4.41,0,0,1,.754-.188L24.114,30a7.047,7.047,0,0,0-1.6.518A8.918,8.918,0,0,0,21.1,31.413Z" transform="translate(-11.161 -15.87)" fill="#2a7de1"/>
  <path id="Trazado_399" data-name="Trazado 399" d="M19,28.3l.424.565a5.043,5.043,0,0,1,1.036-.706V28.06a.71.71,0,0,1,.424-.659.6.6,0,0,1,.283-.047.756.756,0,0,1,.518.235,8.592,8.592,0,0,1,1.177-.33c0-.094-.141-.659-.141-.659a10.613,10.613,0,0,0-1.978.612A7.247,7.247,0,0,0,19,28.3Z" transform="translate(-10.05 -14.072)" fill="#2a7de1"/>
  <path id="Trazado_400" data-name="Trazado 400" d="M18.7,24.59v-.047a.71.71,0,0,1,.424-.659.669.669,0,0,1,.283-.094.756.756,0,0,1,.518.235,8.533,8.533,0,0,1,1.46-.424c-.094-.283-.094-.424-.141-.518H21.1a3.7,3.7,0,0,0-.659.094l-.094.047a2.552,2.552,0,0,1-.706.094,1.035,1.035,0,0,1-.848-.377l-.141-.141a.146.146,0,0,0-.094.047c-.094.047-.094.047-.094.094v.283c0,.612-.565.989-.8,1.177l-.094.047a1.407,1.407,0,0,0-.565.565,1.711,1.711,0,0,0,.33.424C17.754,25.155,18.225,24.872,18.7,24.59Z" transform="translate(-8.992 -12.061)" fill="#2a7de1"/>
  <path id="Trazado_401" data-name="Trazado 401" d="M52.247,25.119c.283.094.848.235.848.235a2.417,2.417,0,0,1,.848-1.272c-.141-.188-.518-.612-.848-1.083-.377.141-.754.283-.895.33a4.856,4.856,0,0,1,.141,1.177A4.242,4.242,0,0,1,52.247,25.119ZM53,23.377c.188.235.377.471.518.659a2.126,2.126,0,0,0-.612.895l-.283-.094c0-.141.047-.235.047-.377a5.8,5.8,0,0,0-.094-.942A1.084,1.084,0,0,0,53,23.377Z" transform="translate(-27.613 -12.167)" fill="#2a7de1"/>
  <path id="Trazado_402" data-name="Trazado 402" d="M37.3,24.083a2.416,2.416,0,0,1,.848,1.272c.141-.047.518-.141.848-.235a1.956,1.956,0,0,1-.047-.612,4.856,4.856,0,0,1,.141-1.177c-.141-.047-.518-.188-.895-.33A9.774,9.774,0,0,1,37.3,24.083Zm1.413-.518a7.079,7.079,0,0,0-.094.942,1.037,1.037,0,0,0,.047.377l-.283.094a2.192,2.192,0,0,0-.612-.895c.141-.188.33-.424.518-.659Z" transform="translate(-19.731 -12.167)" fill="#2a7de1"/>
  <path id="Trazado_403" data-name="Trazado 403" d="M38.3,30.49a7.905,7.905,0,0,0,2.214-.706,4.895,4.895,0,0,1-.8-1.083,6.305,6.305,0,0,1-.942.235A2.745,2.745,0,0,1,38.3,30.49Zm.754-1.319c.141-.047.33-.094.518-.141a2.832,2.832,0,0,0,.424.612c-.283.094-.612.236-1.13.377A2.25,2.25,0,0,0,39.054,29.171Z" transform="translate(-20.26 -15.183)" fill="#2a7de1"/>
  <path id="Trazado_404" data-name="Trazado 404" d="M45.1,30.148a6.886,6.886,0,0,0,.706.424,6.886,6.886,0,0,0,.706-.424,2.754,2.754,0,0,1-.706-.848A3.629,3.629,0,0,1,45.1,30.148Zm.706-.283c.094.094.141.188.235.235-.094.047-.141.094-.235.141a1.029,1.029,0,0,0-.235-.141A.568.568,0,0,0,45.806,29.865Z" transform="translate(-23.857 -15.5)" fill="#2a7de1"/>
  <path id="Trazado_405" data-name="Trazado 405" d="M37.912,19.337a2.671,2.671,0,0,0,.424-1.225c0-.188-.188-.612-.471-.612s-.565.424-.565.895A1.232,1.232,0,0,0,37.912,19.337Zm0-1.507c.094,0,.188.235.188.283a1.785,1.785,0,0,1-.235.754.609.609,0,0,1-.188-.471C37.63,18.112,37.771,17.83,37.912,17.83Z" transform="translate(-19.731 -9.258)" fill="#2a7de1"/>
  <path id="Trazado_406" data-name="Trazado 406" d="M52.414,30.543a2.7,2.7,0,0,1-.471-1.507A6.232,6.232,0,0,0,51,28.8a3.755,3.755,0,0,1-.8,1.083A15.426,15.426,0,0,0,52.414,30.543ZM51.142,29.13c.141.047.33.094.518.141a2.751,2.751,0,0,0,.188.848,6.244,6.244,0,0,1-1.13-.377A2.4,2.4,0,0,0,51.142,29.13Z" transform="translate(-26.555 -15.235)" fill="#2a7de1"/>
  <path id="Trazado_407" data-name="Trazado 407" d="M42.612,25.425a.164.164,0,0,0,.094-.047V25.33a.3.3,0,0,1,.235-.283h.094a.3.3,0,0,1,.283.235c.094.283-.141.565-.471.706l-.565.188a4.1,4.1,0,0,0,.706.942,1.8,1.8,0,0,0,.848-1.46c0-.754-.848-1.13-1.743-1.46a7.027,7.027,0,0,0-.094.989,1.3,1.3,0,0,0,.047.424Zm.942.188a1.326,1.326,0,0,1-.565,1.036,2.048,2.048,0,0,1-.283-.33C43.507,26.131,43.554,25.613,43.554,25.613Zm-1.225-.989c.33.094.706.235.706.235a.577.577,0,0,0-.565.33c-.047,0-.094.047-.141.047v-.047A2.27,2.27,0,0,1,42.33,24.624Z" transform="translate(-22.217 -12.802)" fill="#2a7de1"/>
  <path id="Trazado_408" data-name="Trazado 408" d="M54.736,18.395c0-.471-.283-.895-.565-.895s-.471.377-.471.612a3.062,3.062,0,0,0,.424,1.225A1.232,1.232,0,0,0,54.736,18.395Zm-.612-.565c.094,0,.283.283.283.565a.675.675,0,0,1-.188.471,1.785,1.785,0,0,1-.236-.754C53.983,18.065,54.03,17.83,54.124,17.83Z" transform="translate(-28.407 -9.258)" fill="#2a7de1"/>
  <path id="Trazado_409" data-name="Trazado 409" d="M48.148,27.073a3.493,3.493,0,0,0,.754-.942l-.612-.141c-.33-.141-.565-.424-.471-.706a.3.3,0,0,1,.283-.235h.094a.3.3,0,0,1,.235.283v.047a.146.146,0,0,1,.094.047l.565.188a1.3,1.3,0,0,0,.047-.424,7.027,7.027,0,0,0-.094-.989c-.942.33-1.743.659-1.743,1.46A1.784,1.784,0,0,0,48.148,27.073Zm.659-2.449c0,.188.047.377.047.565v.047c-.047,0-.094-.047-.141-.047a.607.607,0,0,0-.565-.33A3.572,3.572,0,0,1,48.807,24.624Zm-1.272.989a1.028,1.028,0,0,0,.848.706c-.094.094-.188.235-.283.33A1.326,1.326,0,0,1,47.536,25.613Z" transform="translate(-25.021 -12.802)" fill="#2a7de1"/>
  <path id="Trazado_410" data-name="Trazado 410" d="M68.966,29.149l.141-.942L70,28.019l-.848-.377L69.3,26.7l-.659.706-.848-.424v.047l.424.8-.612.659.895-.188Z" transform="translate(-35.76 -14.125)" fill="#2a7de1"/>
  <path id="Trazado_411" data-name="Trazado 411" d="M64.194,26.1a1.454,1.454,0,0,0-.094.518,1.408,1.408,0,0,0,.471.989,2.588,2.588,0,0,1,.424.33,2.29,2.29,0,0,1,.706.612l.047.094h.188a2.75,2.75,0,0,1,.848.188l.471.141c.094,0,.188.047.283.047a1.279,1.279,0,0,0,.8-.283.988.988,0,0,0,.283-.377,1.293,1.293,0,0,0,.094-.612v-.33a2.293,2.293,0,0,1,.047-.565.173.173,0,0,1,.047-.141h0l.047-.094a1.64,1.64,0,0,1,.659-.612l.141-.094-.094-.471-.141-.047c-.235-.047-.424-.141-.518-.141-.141-.047-.706-.424-.706-.848v-.235a.321.321,0,0,0-.235-.33c-.047,0-.094-.047-.188-.047a.477.477,0,0,0-.33.188.675.675,0,0,1-.518.235,2.364,2.364,0,0,1-.565-.094,1.421,1.421,0,0,1-.518-.33l-.094-.094-.141.094a.69.69,0,0,1-.188.094l-.141.094.188-.141a1.452,1.452,0,0,1,.047.471.94.94,0,0,1-.094.424l-.047.094c0,.047-.047.047-.047.094a3.2,3.2,0,0,1-.565.565C64.524,25.678,64.288,25.819,64.194,26.1Zm1.46-1.083a1.611,1.611,0,0,0,.141-1.177h0a1.207,1.207,0,0,0,.565.283,2.716,2.716,0,0,0,.659.141.97.97,0,0,0,.8-.33c.047-.047.047-.094.094-.094v.283A1.525,1.525,0,0,0,68.81,25.3c.094.047.283.094.471.188v.047a1.611,1.611,0,0,0-.754.754c-.33.659-.047,1.46-.236,1.79a.917.917,0,0,1-.754.471A.425.425,0,0,1,67.3,28.5l-.471-.094a3.045,3.045,0,0,0-.942-.188h0a2.515,2.515,0,0,0-.754-.612c-.047,0-.377-.283-.424-.283a.838.838,0,0,1-.283-1.036C64.759,25.819,65.23,25.631,65.654,25.019Z" transform="translate(-33.908 -12.537)" fill="#2a7de1"/>
  <path id="Trazado_412" data-name="Trazado 412" d="M34.035,29.313c.283,0,.235-.283.33-.377s.377-.047.377-.33-.283-.235-.377-.33-.047-.377-.33-.377c-.188,0-.235.141-.235.33v.8C33.8,29.172,33.847,29.313,34.035,29.313Z" transform="translate(-17.879 -14.759)" fill="#2a7de1"/>
  <path id="Trazado_413" data-name="Trazado 413" d="M15.473,36.681a.265.265,0,0,0-.424,0c-.141.188.094.377.094.518s-.188.33,0,.518.377-.094.518-.094.33.188.518,0c.094-.141.047-.283-.094-.424Z" transform="translate(-7.936 -19.348)" fill="#2a7de1"/>
  <path id="Trazado_414" data-name="Trazado 414" d="M39.986,24.868a1.482,1.482,0,0,0,1.13-1.46,1.888,1.888,0,0,0-1.036-1.6,2.7,2.7,0,0,0-.33-.188,1.3,1.3,0,0,0,.942-1.272.694.694,0,0,0-.706-.706.756.756,0,0,0-.518.235.575.575,0,0,0-.188.424,2.413,2.413,0,0,1-.895.094,3.636,3.636,0,0,1-.706-.094,6.152,6.152,0,0,0,.706-.565c.141-.141.565-.283.754-.565a7.174,7.174,0,0,0,.848-2.025,4.2,4.2,0,0,0,.141-1.036,2.851,2.851,0,0,0-.094-.706l-.047-.33c-.047-.283-.094-.942-.659-1.13,0,0-1.036-1.554-1.083-1.6a.088.088,0,0,0-.141,0c0-.094-.424.377-.424.377a.775.775,0,0,0-.424.094c-.047-.047-.094-.094-.141-.094l-.094-.094-.188-1.177h-.141s-.612.094-.659.094-.188-.047-.377-.094c-.047,0-.141-.094-.188-.141v-.188a1.341,1.341,0,0,0-.8-1.272,1.322,1.322,0,0,0-1.6.33.512.512,0,0,1-.236-.047c-.188-.047-.283-.141-.283-.188l-.424-.706-.942.565c-.565-.471-.848-.612-1.177-.471a.988.988,0,0,0-.377.283.425.425,0,0,0,.047-.235.684.684,0,0,0-.659-.706c-.047-.047-.094-.047-.141-.094a7.356,7.356,0,0,1-.33-.8c0-.047-.094-.047-.141-.047-.047.047-1.13.895-1.13.895A1.68,1.68,0,0,0,26.045,7.3V6.217h-.565V6.17a2.364,2.364,0,0,0-2.4-2.543h-.235V2.732h1.083V1.083H22.842V0h-1.7V1.083H20.063V2.732h1.083v.989c-.141,0-.235-.047-.33-.047a2.378,2.378,0,0,0-2.4,2.59h-.659V7.347A1.863,1.863,0,0,0,16.531,8.9l-.518-.424c-.047,0-.942-.8-.942-.8l-.094-.094L13,9.938A1.675,1.675,0,0,0,12.1,9.7a8.327,8.327,0,0,0-1.413.235,1.327,1.327,0,0,0-1.648-.33,1.343,1.343,0,0,0-.848,1.272v.188a1.289,1.289,0,0,1-.235.188l-.094.094a2.4,2.4,0,0,0-1.13,1.507H3.672v2.826H5.792a2.54,2.54,0,0,0-.942,2.072,2.893,2.893,0,0,0,1.413,2.4,1.831,1.831,0,0,1-.706.094,2.413,2.413,0,0,1-.895-.094.716.716,0,0,0-.706-.659.723.723,0,0,0-.706.706,1.321,1.321,0,0,0,.942,1.272c-.094.047-1.366.612-1.366,1.79A1.437,1.437,0,0,0,4,24.727a21.951,21.951,0,1,0,35.984.141ZM38.62,18.039a2.451,2.451,0,0,1-.848,1.6,2.367,2.367,0,0,1-1.319.565,3.884,3.884,0,0,0,1.884.612c1.177,0,1.319-.235,1.319-.471a.245.245,0,0,1,.094-.188.357.357,0,0,1,.188-.094.3.3,0,0,1,.283.283c0,1.036-1.366,1.036-1.931,1.036h-.235a1.515,1.515,0,0,1,.33.188l.848.377a2.813,2.813,0,0,1,.518.283,1.446,1.446,0,0,1,.848,1.225,1.04,1.04,0,0,1-.942,1.083.879.879,0,0,1-.895-.942.283.283,0,0,1,.565,0c0,.283.188.377.283.377a.468.468,0,0,0,.377-.471c0-.283-.188-.518-.565-.754a2.17,2.17,0,0,0-.471-.235l-.848-.377s-.895-.471-1.036-.518h0a10.3,10.3,0,0,1-1.648-1.272l-.235-.188.047-.047s.377.141.518,0a.9.9,0,0,0,.047-.471l.141.047h.235a2.187,2.187,0,0,0,1.177-.424,1.768,1.768,0,0,0,.659-1.177v-.141a1.789,1.789,0,0,0-.33-1.036.407.407,0,0,1-.141-.283c0-.094,0-.141.047-.188a.357.357,0,0,1,.188-.094c.094,0,.188.047.33.188a2.214,2.214,0,0,1,.471,1.413C38.62,17.9,38.62,17.945,38.62,18.039Zm0,5.087c-.283-.33-.424-.471-.754-.8l.942.424a.348.348,0,0,1,.235.141A.5.5,0,0,0,38.62,23.126ZM27.552,9.043l.283.047-.047-.235L28.023,9l.047-.283.188.188.094-.283.188.424a2.3,2.3,0,0,1,.33.141c.047,0,.33,0,.377.141.047.235-.424.33-.424.377s.141.141.235.188c.188.141.565.471.565.565.047-.047.188-.235.235-.283a2.842,2.842,0,0,1,.377-.377c.188-.047.377.188.518.283.235.141.377.377.424.377l.848-.518a1.3,1.3,0,0,0,1.13.706.4.4,0,0,0,.283-.094.869.869,0,0,1,1.554.706c-.047.188.33.518.518.565a1.28,1.28,0,0,0,.659.141l.283-.047.188,1.319c-1.036.565-1.083.565-1.083,1.648a2.988,2.988,0,0,1-.141,1.083,2.214,2.214,0,0,1-.424.565l-.047.047v.141l.283.471c.047-.047.565-.424.612-.565a3.532,3.532,0,0,0,0-.706,2.318,2.318,0,0,0,.141-1.036c0-.754.047-.895.33-1.083a6.972,6.972,0,0,1,.612-.377c-.047.283-.471.424-.471.565a.4.4,0,0,0,.141.283l.094-.047a.227.227,0,0,1,.283-.047c.141-.094.283-.235.424-.235a1.941,1.941,0,0,1,.424.094l.094-.094a.538.538,0,0,1-.141-.33c0-.141-.094-.235-.33-.141l.047-.141c.047-.141.283-.141.283-.141a.3.3,0,0,1,.283,0l.235-.283.047.236h.188l-.047.188.188.047-.047.141.188.094-.33.094a.741.741,0,0,1-.283.612c0,.047.047.094.047.141a.516.516,0,0,1-.377.471l-.188.424a.5.5,0,0,0,.235.094c.706-.047.612-1.13,1.083-1.13.424,0,.471.424.471.706a4.335,4.335,0,0,1,0,1.931,5.634,5.634,0,0,1-.612,1.554,1.394,1.394,0,0,0,.094-.471V17.8a2.294,2.294,0,0,0-.565-1.6.643.643,0,0,0-.518-.283.511.511,0,0,0-.424.188.535.535,0,0,0-.141.377.6.6,0,0,0,.188.471,1.289,1.289,0,0,1,.283.848v.141a1.636,1.636,0,0,1-.471.942V18.84c.047-.188.141-.377.188-.518,0-.047.047-.235.047-.33a4.56,4.56,0,0,1,.141-.518c-.141.094-.424.424-.659.424h-.141v.471c0,.094-.188.895-.188.895h0l-.283.047h0s-.188-.141-.235-.188l.141-.754-.235.471a.689.689,0,0,0-.141-.235.173.173,0,0,0-.141-.047l-.424.706a1.428,1.428,0,0,1,.235.471l-.094.047a.381.381,0,0,0-.33-.235.482.482,0,0,0-.283.235l-.047-.047a.43.43,0,0,1,.141-.235c-.047,0-.094-.047-.188,0a.7.7,0,0,0-.33.141l-.047-.094a.658.658,0,0,1,.377-.188c0-.047-.047-.047-.094-.047h-.188v-.094a.329.329,0,0,1,.188-.094c.188,0,.283.094.471.094l.377-.754c0-.33.141-.33.141-.565v-.141c-.047,0-.471.141-.565.141s-.094-.283-.094-.33l-.283-.424a.979.979,0,0,1-.518.047l-.047-.047h0a1.913,1.913,0,0,1-.895,0h0l-.659-.188a2.073,2.073,0,0,0-.471-.094,6,6,0,0,0-.565.33.207.207,0,0,1-.235.047c-.094-.047-.141-.141-.094-.188a1.1,1.1,0,0,0-.094-.612,3.321,3.321,0,0,0-.424-.33l-.565-.424-.047-.141a1.792,1.792,0,0,1-.612-.848h-.047l-.094-.141-.377-.047a1.906,1.906,0,0,0-.612-.471l-.094-.094a.7.7,0,0,0,0-.33.879.879,0,0,0-.141-.188c-.047.094-.235.283-.33.471a5.25,5.25,0,0,1-.424.471,5.19,5.19,0,0,1,.094.848c0,.047.094.094.141.188s.235.283.283.377a.173.173,0,0,1-.047.141c-.094.047-.235-.047-.283-.094l-.094-.047-.047-.141-.188-.188a3.754,3.754,0,0,0-.141-.706,3.136,3.136,0,0,0-.141-.33v-.094c.141-.141.377-.565.33-.706a.368.368,0,0,0-.188-.188.47.47,0,0,1-.188-.235.323.323,0,0,1-.424-.141c-.047-.047,0-.141,0-.188.047-.094.141-.141.141,0v.094a.143.143,0,0,0,.188,0,1.693,1.693,0,0,1,.094-.518,1.614,1.614,0,0,1,.424-.424c0-.047.141-.188.33-.33a2.048,2.048,0,0,1,.33-.283,2.973,2.973,0,0,0,.612-.659l-.094-.377a1.53,1.53,0,0,1-.471-.612c0-.047,0-.094-.047-.094-.141,0-.565-.094-.612-.33l.424-.047Zm5.6,8.619c-.235-.33.377-.471.471-.377A13.343,13.343,0,0,0,34.711,18.6l.141.141h-.188a1.46,1.46,0,0,0-.33.094l-.047.047-.094-.047C33.769,18.416,33.439,17.992,33.157,17.662Zm.612,1.225a22.051,22.051,0,0,0-2.543-1.413.779.779,0,0,0,.659-.141,2.886,2.886,0,0,1,.283-.188c.094,0,.188.047.283.047a4.021,4.021,0,0,1,.518.659C33.2,18.133,33.486,18.51,33.769,18.887Zm.424-1.413a.52.52,0,0,0,.377,0,.146.146,0,0,1,.047.094.729.729,0,0,0,.141.518l.33.141a.879.879,0,0,0-.141.188C34.664,18.086,34.428,17.756,34.193,17.474Zm-6.076-1.507c.047-.047.047-.094.047-.188a.173.173,0,0,0-.047-.141h0v-.094h1.554c.33,0,.424.565.141.565l-1.743.047Zm-.188-.754-.141-.141c0-.188-.047-.377-.047-.518v-.188a2.2,2.2,0,0,1,.236-.283v.188a1.879,1.879,0,0,1,.141.188h.094l.094.047.424.377a2.536,2.536,0,0,0,.377.047h0c.047.094.094.141.141.235A10.679,10.679,0,0,1,27.929,15.213Zm1.837,1.177a5.06,5.06,0,0,1,.848,0,.827.827,0,0,1,.235.188c.047.094,0,.235,0,.424a.651.651,0,0,0,.283.518,18.581,18.581,0,0,0-2.685-1.036A6.913,6.913,0,0,1,29.765,16.391Zm-3.109-1.554A1.294,1.294,0,0,1,26.28,13.8h0c0-.141.047-.283.047-.424a.873.873,0,0,0,.33.094.662.662,0,0,0,.188.188,3,3,0,0,1-.283.424l-.094.33A1.946,1.946,0,0,1,26.657,14.836ZM27.74,9.985a1.78,1.78,0,0,0,.424.565h0a4.444,4.444,0,0,1-.659.612,2.09,2.09,0,0,0-.612.094,4.6,4.6,0,0,1-.518-.659,1.925,1.925,0,0,0,.754-.989A1.2,1.2,0,0,0,27.74,9.985ZM20.817,4.239a2.25,2.25,0,0,1,.848.188V2.261H20.628V1.554h1.036V.518h.706V1.6h1.036v.659H22.371V4.38a1.573,1.573,0,0,1,.706-.141,1.9,1.9,0,0,1,1.884,2.025v.047h-.706a1.315,1.315,0,0,0-1.272-1.366,1.244,1.244,0,0,0-1.036.612,1.243,1.243,0,0,0-2.308.754h-.706V6.264A1.87,1.87,0,0,1,20.817,4.239ZM18.179,6.688h7.489v.565H18.179Zm3.768,3.391c-.848,0-2.025-1.13-2.59-2.4h.754c.471.942,1.272,1.743,1.837,1.743.612,0,1.366-.8,1.837-1.743h.754C23.972,8.949,22.795,10.079,21.947,10.079Zm2.779.141c-.047,0-.094.047-.141.047a5.37,5.37,0,0,0-.471-.895.845.845,0,0,0,.235-.33A5.52,5.52,0,0,0,24.726,10.221Zm-1.507-.047a2.2,2.2,0,0,1,.235.471,4.63,4.63,0,0,0-1.554.895,4.63,4.63,0,0,0-1.554-.895,4.377,4.377,0,0,1,.235-.471,2.369,2.369,0,0,0,1.319.471A2.251,2.251,0,0,0,23.219,10.173ZM19.78,9.326a3.53,3.53,0,0,0-.471.942c-.047,0-.094-.047-.141-.047a3.712,3.712,0,0,0,.377-1.177A1.249,1.249,0,0,0,19.78,9.326Zm-1.6-1.648a1.141,1.141,0,0,1,1.036,1.177,3.333,3.333,0,0,1-.471,1.507c.235.094.471.188.754.283A5.776,5.776,0,0,1,20.11,9.42l.047-.094.094.094.283.283.047.047-.047.047a3.955,3.955,0,0,0-.518,1.036,3.384,3.384,0,0,1,1.931,1.177,3.843,3.843,0,0,1,1.931-1.177A4.248,4.248,0,0,0,23.36,9.8l-.047-.047L23.36,9.7l.283-.283.094-.094.047.094a9.426,9.426,0,0,1,.612,1.225c.283-.094.565-.235.754-.283a3.334,3.334,0,0,1-.471-1.507,1.141,1.141,0,0,1,1.036-1.177,1.373,1.373,0,0,1,1.177,1.46A1.633,1.633,0,0,1,26,10.6a6.458,6.458,0,0,0,.848,1.036c.047,0,.565-.188.565-.188l-.33.33a1.5,1.5,0,0,0-.518.612h-.047a.428.428,0,0,0-.377.471v.188a1.548,1.548,0,0,0-.188.8,1.7,1.7,0,0,0,.848,1.46h.047l.047.235.188.188.094.235.094.094h-.235a7.946,7.946,0,0,1-3.862-1.036,4.1,4.1,0,0,1-1.225.706,3.6,3.6,0,0,1-1.225-.706,10.77,10.77,0,0,1-4.945,1.083H14.364c-.141,0-.188-.565,0-.565h1.743a1.645,1.645,0,0,0,1.837-1.7,1.914,1.914,0,0,0-.471-1.272,1.722,1.722,0,0,0-1.13-.518,2.4,2.4,0,0,0-1.743.706.36.36,0,0,1-.235.094c-.047,0-.141-.047-.188-.047a.357.357,0,0,1-.094-.188.425.425,0,0,1,.047-.235,2.943,2.943,0,0,1,2.167-.942,2.363,2.363,0,0,1,.754.141A9.242,9.242,0,0,0,17.9,10.55,1.756,1.756,0,0,1,17,9.09,1.322,1.322,0,0,1,18.179,7.677Zm-5.558,9.231c0,.094-.047.188-.094.188a.207.207,0,0,1-.235-.047,1.271,1.271,0,0,0-.612-.33,5.321,5.321,0,0,1,1.036-.518A1.509,1.509,0,0,0,12.621,16.909Zm.047.565a22.051,22.051,0,0,0-2.543,1.413c.33-.377.612-.754.848-1.036a6.713,6.713,0,0,1,.612-.754c.141-.047.377.141.424.188A.521.521,0,0,0,12.668,17.474Zm.377-.565V16.72c0-.141,0-.33.141-.377a6.712,6.712,0,0,1,.989,0c.377,0,.8.047,1.319.047a27.176,27.176,0,0,0-2.732,1.036A.639.639,0,0,0,13.045,16.909Zm.8-3.485h0l1.413-.047v-.094a.894.894,0,0,1,.895-.895.866.866,0,0,1,.8.565.85.85,0,0,1,0,1.6.866.866,0,0,1-.8.565.925.925,0,0,1-.895-.895V14.13h-1.13v-.047a.046.046,0,0,0-.047-.047C13.8,13.941,13.752,13.706,13.846,13.423ZM13.8,12.387l-.141-.518a11.475,11.475,0,0,1,.754-.895,6.938,6.938,0,0,1,.565.471A2.345,2.345,0,0,0,13.8,12.387Zm1.46,2.826h-.942a2.711,2.711,0,0,0-.094-.471h.706c.094.094.188.283.33.471Zm1.46-5.464a1.88,1.88,0,0,0,.706.895c-.188.283-.377.471-.518.659a3.18,3.18,0,0,0-.659-.094,4.224,4.224,0,0,0-.848.094ZM15.071,8.384l.565.471-.141.188.377.33.141-.188.424.33-.565.706-.424-.33.141-.188-.377-.33-.424.518.377.33.141-.188.424.33-.565.706-.377-.33.141-.188-.377-.33L13.563,11.4l-.047-.047a.826.826,0,0,1-.33-.754ZM8.194,11.822l.094-.094c.188-.141.518-.377.471-.612a.861.861,0,0,1,.518-1.036.932.932,0,0,1,1.13.283.4.4,0,0,0,.283.094,14.859,14.859,0,0,1,1.507-.235.755.755,0,0,1,.754.377,41.866,41.866,0,0,1,1.083,4.945,6.048,6.048,0,0,0-1.978.518,8.177,8.177,0,0,0-1.648,1.177,48.138,48.138,0,0,1-3.109-4C7.064,12.905,7.44,12.387,8.194,11.822Zm.942,5.6c.047-.094.235-.283.424-.518a3.075,3.075,0,0,0,.33.377l-.565.706h0A2.581,2.581,0,0,0,9.136,17.427Zm-.518,0a.89.89,0,0,1,.33.612.864.864,0,0,1-.8.942c-.094,0-.283-.047-.377-.047a.733.733,0,0,1-.424.141.886.886,0,0,1-.895-.848c0-.094.047-.283.047-.33a1.594,1.594,0,0,1-.141-.377,1.081,1.081,0,0,1,.188-.659.985.985,0,0,1,.612-.33h.094a1.154,1.154,0,0,1,.565.188l.047.047.848-1.036a.921.921,0,0,1,.424.235.7.7,0,0,1,.141.424l-.754.942C8.618,17.38,8.618,17.427,8.618,17.427Zm-.471-2.308a.669.669,0,0,0-.283-.094,3,3,0,0,0-1.272.33V14.6H7.77C7.817,14.648,7.959,14.883,8.147,15.119Zm-2.826.094v-.518h.235v-.471H4.9v.471h.235v.518H4.191v-.518h.235v-.471H4.191V13.47h2.92a.912.912,0,0,1,.471.754H5.98v.471h.235v.518ZM3.2,23.408a1.446,1.446,0,0,1,.848-1.225,2.117,2.117,0,0,1,.565-.283l.848-.377.33-.188H5.6c-1.319,0-1.931-.33-1.931-1.036a.271.271,0,0,1,.283-.283.3.3,0,0,1,.283.283.245.245,0,0,0,.094.188c.235.235.989.235,1.272.235a3.723,3.723,0,0,0,1.884-.612,2.367,2.367,0,0,1-1.319-.565,2.309,2.309,0,0,1-.377-3.2A3.127,3.127,0,0,1,7.911,15.26a.283.283,0,1,1,0,.565,2.461,2.461,0,0,0-1.7.848,1.677,1.677,0,0,0-.33,1.177,1.768,1.768,0,0,0,.659,1.177,1.994,1.994,0,0,0,1.13.424,1.62,1.62,0,0,0,1.272-.706v.094a16.642,16.642,0,0,0,1.177-1.413c.141-.188.612.141.424.377A27.4,27.4,0,0,1,8.665,19.97c-.094.094-.094.094-.141.094a10.6,10.6,0,0,1-1.837,1.413c-.8.424-.989.518-1.083.565h0l-.848.377-.471.235a1.049,1.049,0,0,0-.518.8.418.418,0,0,0,.33.424c.283,0,.33-.235.33-.377a.245.245,0,0,1,.094-.188.357.357,0,0,1,.188-.094.3.3,0,0,1,.283.283.887.887,0,0,1-.942.942A1,1,0,0,1,3.2,23.408Zm2.967-5.464Zm-.283,4.474c-.33.33-.283.33-.612.706a.164.164,0,0,0-.047-.094.581.581,0,0,0-.377-.188c-.094,0,.047-.047.188-.094S5.886,22.419,5.886,22.419Zm16.2,36.361A21.478,21.478,0,0,1,.517,37.491a21.113,21.113,0,0,1,4.1-12.67,1.909,1.909,0,0,0,.424-.235,1.426,1.426,0,0,0,.424-.8,21.419,21.419,0,0,1,33.017,0,1.189,1.189,0,0,0,.848,1.083A21.338,21.338,0,0,1,22.088,58.78Z" transform="translate(0.002)" fill="#2a7de1"/>
  <path id="Trazado_415" data-name="Trazado 415" d="M44.6,61.149A16.249,16.249,0,1,0,28.349,77.4,16.282,16.282,0,0,0,44.6,61.149ZM28.114,76.833a15.747,15.747,0,0,1-15.449-15.5H28.114Zm0-16.014h-15.4a15.687,15.687,0,0,1,15.4-15.4Zm.565-15.4a15.72,15.72,0,0,1,15.4,15.4h-15.4Zm0,31.415v-15.5h15.4A15.706,15.706,0,0,1,28.679,76.833Z" transform="translate(-6.4 -23.752)" fill="#2a7de1"/>
  <path id="Trazado_416" data-name="Trazado 416" d="M16.235,103.771c-.047-.094-.188-.235-.33-.424a.146.146,0,0,0-.094-.047c-.047,0,0,.047,0,.094.188.235.188.283-.235.612l-1.319,1.13c-.047.047-.047.047-.141-.047q-.353-.424.141-.848a.466.466,0,0,1,.706,0,.146.146,0,0,0,.094.047c.047-.047-.047-.094-.047-.141a.843.843,0,0,0-1.225-.094c-.33.283-.188.706.094,1.036a2.693,2.693,0,0,0,.33.377,2.059,2.059,0,0,0,.33.377.146.146,0,0,0,.094.047c.047,0,0-.047,0-.094-.141-.141-.141-.235.047-.377l1.272-1.13c.33-.283.377-.283.518-.141.047.047.047.047.094.047s.047-.047,0-.094A1.088,1.088,0,0,1,16.235,103.771Z" transform="translate(-7.191 -54.646)" fill="#2a7de1"/>
  <path id="Trazado_417" data-name="Trazado 417" d="M12.047,97.769a1.4,1.4,0,0,0-1.978-.518,1.286,1.286,0,0,0-.377,1.931,1.344,1.344,0,0,0,1.931.518A1.361,1.361,0,0,0,12.047,97.769ZM9.927,99.135a1.085,1.085,0,0,1,.518-1.507c.848-.518,1.225-.094,1.366.094a1.154,1.154,0,0,1-.518,1.554C10.54,99.747,10.116,99.464,9.927,99.135Z" transform="translate(-4.981 -51.329)" fill="#2a7de1"/>
  <path id="Trazado_418" data-name="Trazado 418" d="M8.7,92.009a.046.046,0,0,0,.047.047c.047,0,.047-.047,0-.094-.047-.188-.141-.33-.141-.377a4,4,0,0,1-.141-.424c-.047-.047-.047-.094-.094-.094a.065.065,0,0,0,0,.094c.094.188.047.283-.283.424L6.773,92.1,7.9,89.7a.173.173,0,0,0,.047-.141q0-.071-.141,0l-2.072.706c-.188.047-.283.047-.33-.094,0-.047-.047-.094-.047-.047-.047,0-.047.047,0,.094a1.125,1.125,0,0,0,.141.33,1.423,1.423,0,0,1,.141.424c0,.047,0,.094.047.047.047,0,.047-.047,0-.094-.094-.188-.047-.235.188-.33l1.46-.565L6.161,92.386a.283.283,0,0,0-.047.188c0,.047.094.047.141,0l2.025-.706C8.61,91.774,8.657,91.821,8.7,92.009Z" transform="translate(-2.816 -47.359)" fill="#2a7de1"/>
  <path id="Trazado_419" data-name="Trazado 419" d="M4.948,86.4c.047-.047.047-.047.047-.094a.046.046,0,0,0-.047-.047c-.141,0-.235-.094-.283-.33l-.094-.518,1.7-.283c.518-.094.612-.047.612.141,0,.047,0,.094.047.047.047,0,.047-.047.047-.094a3,3,0,0,0-.094-.424,4.541,4.541,0,0,0-.094-.565.164.164,0,0,0-.047-.094c-.047,0-.047.047-.047.094.047.283,0,.33-.565.424l-1.7.283-.047-.424c-.047-.33,0-.424.141-.424a.164.164,0,0,0,.094-.047c0-.047,0-.047-.047-.047-.094,0-.33.047-.377.047-.094,0-.094.047-.094.047,0,.047.047.094.094.33l.283,1.554a.7.7,0,0,1,0,.33c-.047.047,0,.047.047.047A1.169,1.169,0,0,0,4.948,86.4Z" transform="translate(-2.168 -44.437)" fill="#2a7de1"/>
  <path id="Trazado_420" data-name="Trazado 420" d="M4.041,81.125c0-.188.047-.235.188-.235.094,0,.188,0,.754-.047l.612-.047a3.887,3.887,0,0,1,.754,0c.141,0,.188.047.188.188,0,.047,0,.094.047.094s.047-.047.047-.094c0-.141-.047-.377-.047-.424v-.565a.164.164,0,0,0-.047-.094c-.047,0-.047.047-.047.094,0,.188,0,.283-.141.33-.141,0-.424.047-.754.047l-.612.047h-.8c-.141,0-.188-.047-.188-.188,0-.047,0-.094-.047-.094s-.047.047-.047.094c0,.141.047.33.047.424v.471c0,.047,0,.094.047.094S4.041,81.172,4.041,81.125Z" transform="translate(-2.062 -42.268)" fill="#2a7de1"/>
  <path id="Trazado_421" data-name="Trazado 421" d="M3.947,76.3c.047,0,.047-.047.047-.094,0-.235.047-.283.424-.235l1.554.094c.471.047.518.094.471.283,0,.047,0,.094.047.094s.047,0,.047-.094v-.471c0-.094.047-.33.047-.518,0-.047,0-.094-.047-.094s-.047.047-.047.094c0,.235-.047.33-.518.283l-.565-.047v-.047c0-.047.047-.424.047-.518a.159.159,0,0,1,.235-.141c.047,0,.047,0,.047-.047s-.047-.047-.094-.047a.874.874,0,0,1-.471-.094c-.047,0-.047,0-.047.047s.094.047.094.236l-.047.565v.047l-.989-.094H4.135l.047-.518c0-.141.047-.188.094-.188h.141c.047,0,.094,0,.094-.047a.046.046,0,0,0-.047-.047c-.047,0-.235-.047-.283-.047a.173.173,0,0,1-.141-.047h0c-.047,0-.047,0-.047.047v.047h0v.141c0,.094-.047.8-.047.942,0,.094-.047.33-.047.518C3.9,76.248,3.9,76.3,3.947,76.3Z" transform="translate(-2.062 -39.464)" fill="#2a7de1"/>
  <path id="Trazado_422" data-name="Trazado 422" d="M4.594,71.289c0-.188.094-.188.188-.188s.188.047.706.141l.659.141a5.461,5.461,0,0,1,.754.141c.141.047.141.094.141.235,0,.047,0,.094.047.094s.047,0,.094-.094c0-.141.047-.377.047-.424a4.561,4.561,0,0,1,.141-.518c0-.047,0-.094-.047-.094a.046.046,0,0,0-.047.047c-.047.188-.094.283-.235.283a3.265,3.265,0,0,1-.754-.141l-.612-.094a3.778,3.778,0,0,1-.706-.141c-.235-.094-.235-.141-.235-.283,0-.047,0-.094-.047-.094s-.047.047-.047.094c0,.141-.047.33-.047.424a2.073,2.073,0,0,1-.094.471c0,.047,0,.094.047.094A.146.146,0,0,1,4.594,71.289Z" transform="translate(-2.379 -37.189)" fill="#2a7de1"/>
  <path id="Trazado_423" data-name="Trazado 423" d="M6.879,65.785A1.448,1.448,0,0,0,8.763,64.7a1.844,1.844,0,0,0,.141-.612c0-.047-.047-.094-.094-.141a4.247,4.247,0,0,0-.424-.235H8.292c0,.047,0,.047.047.094.235.188.33.377.141.848a1.115,1.115,0,0,1-1.507.659c-.612-.235-.942-.659-.706-1.272.141-.377.424-.754.754-.612h.094c0-.047,0-.047-.094-.094a2.3,2.3,0,0,0-.33-.141C6.6,63.147,6.549,63.1,6.5,63.1s-.047,0-.094.047a5.466,5.466,0,0,0-.377.754A1.466,1.466,0,0,0,6.879,65.785Z" transform="translate(-3.157 -33.38)" fill="#2a7de1"/>
  <path id="Trazado_424" data-name="Trazado 424" d="M8.094,59.942c.094-.188.141-.188.283-.141l.659.33.565.283a3.543,3.543,0,0,1,.659.377c.141.094.141.141.047.283,0,.047-.047.094,0,.094s.047,0,.094-.047a3.735,3.735,0,0,1,.188-.424,3.022,3.022,0,0,1,.283-.471.065.065,0,0,0,0-.094c-.047,0-.047,0-.094.047-.094.188-.141.235-.283.188s-.377-.188-.659-.33l-.565-.283-.659-.33c-.141-.094-.141-.188-.094-.33,0-.047.047-.047,0-.094-.047,0-.047,0-.094.047a1.381,1.381,0,0,1-.188.377A4.243,4.243,0,0,1,8,59.848c0,.094,0,.141.047.141S8.094,59.989,8.094,59.942Z" transform="translate(-4.231 -31.211)" fill="#2a7de1"/>
  <path id="Trazado_425" data-name="Trazado 425" d="M12.772,56.961c.141.236.141.33.047.518,0,0-.047.047,0,.047.047.047.047,0,.094-.047.094-.141.188-.33.235-.33a1.249,1.249,0,0,1,.235-.283c.047-.047.047-.047,0-.094-.047,0-.047,0-.094.047-.047.094-.094.094-.141.047-.047,0-.094-.094-.141-.141l-.188-.33v-.047l.471-.706s0-.047.047,0l.612.141c.047,0-.047.141-.047.188s-.047.047,0,.094c.047,0,.094,0,.141-.094a2.048,2.048,0,0,0,.188-.33c.047-.094.141-.188.188-.283.094-.141.094-.141.047-.188s-.047,0-.047,0c-.094.141-.33.094-.518.047-.565-.094-2.025-.471-2.261-.518H11.5a.356.356,0,0,0,.047.188Zm.283-1.366-.424.612-.612-.895h0Z" transform="translate(-6.082 -28.937)" fill="#2a7de1"/>
  <path id="Trazado_426" data-name="Trazado 426" d="M16.994,46.413c.188-.141.235-.141.471.141l.659.8a1,1,0,0,0,1.6.188c.612-.518.518-1.083,0-1.7l-.565-.706c-.235-.283-.235-.33-.094-.471.047-.047.047-.047.047-.094-.047-.047-.047,0-.094,0l-.283.283c-.094.047-.188.141-.33.235-.047.094-.094.141-.047.141,0,.047.047,0,.094,0,.188-.188.235-.141.471.141l.612.754c.424.518.518.895.141,1.225-.471.377-.8.094-1.177-.283l-.659-.8c-.235-.283-.235-.33-.094-.471.047-.047.047-.047.047-.094s-.047-.047-.094,0c-.094.094-.235.188-.33.283-.141.141-.283.188-.424.33a.146.146,0,0,0-.047.094C16.947,46.46,16.994,46.46,16.994,46.413Z" transform="translate(-8.939 -23.57)" fill="#2a7de1"/>
  <path id="Trazado_427" data-name="Trazado 427" d="M25,43.516c.188.33.094.33-.047.424-.047.047-.047.047-.047.094s.047.047.094,0a1.29,1.29,0,0,1,.33-.188,2.62,2.62,0,0,1,.377-.188c.047-.047.094-.047.047-.094h-.094c-.188.094-.283.094-.471-.188l-.706-1.225,2.543.754c.047,0,.141.047.141,0q.071,0,0-.141l-1.036-1.931c-.094-.188-.094-.283.047-.377.047-.047.047-.047.047-.094s-.047-.047-.094,0c-.141.094-.283.141-.283.188-.047.047-.236.094-.377.188-.047.047-.094.047-.094.094s.047.047.094,0c.188-.094.283-.094.424.141l.754,1.319-2.5-.8c-.047,0-.141-.047-.188,0-.047,0-.047.094,0,.141Z" transform="translate(-12.655 -21.332)" fill="#2a7de1"/>
  <path id="Trazado_428" data-name="Trazado 428" d="M31.025,39.2c.188-.047.235,0,.283.094A5.941,5.941,0,0,1,31.59,40l.188.565c.094.33.188.565.235.706s0,.188-.141.235a.046.046,0,0,0-.047.047c0,.047.047.047.094.047a3.733,3.733,0,0,0,.424-.188c.094-.047.283-.094.518-.188.047,0,.094-.047.047-.094,0-.047-.047-.047-.094,0-.188.047-.283.094-.33-.047s-.141-.377-.283-.706l-.188-.565c-.188-.518-.235-.565-.235-.706-.047-.141,0-.188.141-.235.047,0,.047-.047.047-.094a.065.065,0,0,0-.094,0c-.141.047-.33.141-.377.141-.094.047-.33.094-.424.141a.1.1,0,0,0-.094.094C30.931,39.2,30.978,39.2,31.025,39.2Z" transform="translate(-16.376 -20.502)" fill="#2a7de1"/>
  <path id="Trazado_429" data-name="Trazado 429" d="M34.494,37.659a.354.354,0,0,1,.424.188l1.366,1.978q.071.141.141.141c.047,0,.047-.047.094-.188l.471-2.261c.047-.283.094-.377.283-.424.047,0,.094-.047.047-.047,0-.047-.047-.047-.094-.047a.92.92,0,0,0-.33.047c-.094,0-.188.047-.377.047-.094,0-.094.047-.094.094s.047.047.094.047c.094,0,.188,0,.188.047v.141l-.33,1.837-.895-1.413c-.094-.141-.141-.188-.141-.235,0-.094.094-.094.141-.094a.046.046,0,0,0,.047-.047c0-.047-.047-.047-.094-.047a2.389,2.389,0,0,1-.424.094,3.075,3.075,0,0,0-.518.094.1.1,0,0,0-.094.094C34.447,37.659,34.447,37.659,34.494,37.659Z" transform="translate(-18.197 -19.573)" fill="#2a7de1"/>
  <path id="Trazado_430" data-name="Trazado 430" d="M42.041,36.788c.188,0,.283.047.283.188,0,.094,0,.188.047.754l.047.612a1.313,1.313,0,0,0,.047.471c.047.377,0,.424-.188.424-.047,0-.047,0-.047.047s.047.047.094.047c.141,0,.377-.047.424-.047a7.984,7.984,0,0,1,1.036-.047c.094,0,.094-.047.141-.094v-.377c0-.047,0-.094-.047-.094a.046.046,0,0,0-.047.047.218.218,0,0,1-.141.235c-.094.047-.33.047-.424.094-.236,0-.283,0-.283-.235,0-.094-.047-.424-.047-.8h.471c.141,0,.188.141.188.236a.046.046,0,0,0,.047.047c.047,0,.047-.047.047-.094V37.73c0-.047,0-.047-.047-.047s-.047.047-.094.094c-.047,0-.094.094-.283.094h-.424l-.047-.942h0c.706-.047.706-.047.754.188,0,.047,0,.047.047.047a.046.046,0,0,0,.047-.047v-.471c0-.047,0-.047-.047-.047s-.094.047-.188.047c-.047,0-.754.047-.895.047h-.518a.164.164,0,0,0-.094.047C41.947,36.741,41.994,36.788,42.041,36.788Z" transform="translate(-22.164 -19.362)" fill="#2a7de1"/>
  <path id="Trazado_431" data-name="Trazado 431" d="M47.588,39.343a1.045,1.045,0,0,1,.424.047c.047,0,.33.047.518.047.047,0,.094,0,.094-.047s0-.047-.047-.047c-.283-.047-.33-.094-.283-.471l.047-.518h0l.283.047c.047,0,.047,0,.047.047.094.188.188.33.283.518.236.424.424.612.8.659l.33.047c.047,0,.094,0,.094-.047a.046.046,0,0,0-.047-.047c-.283-.047-.518-.188-1.13-1.225a.876.876,0,0,0,.518-.754c.047-.471-.377-.659-.848-.706a1.6,1.6,0,0,1-.471-.047c-.094,0-.283-.047-.471-.047-.047,0-.094,0-.094.047s0,.047.047.047c.283,0,.283.094.236.377l-.141,1.648c-.047.33-.047.424-.283.424-.047,0-.094,0-.094.047C47.494,39.3,47.541,39.343,47.588,39.343Zm.895-2.355s0-.047.188-.047a.56.56,0,0,1,.471.659c-.047.33-.188.565-.471.518-.188,0-.283-.047-.283-.094Z" transform="translate(-25.074 -19.467)" fill="#2a7de1"/>
  <path id="Trazado_432" data-name="Trazado 432" d="M54.565,40.363a.859.859,0,0,0,1.083-.518c.188-.8-.8-1.177-.706-1.648a.367.367,0,0,1,.471-.235.412.412,0,0,1,.377.471c0,.047,0,.094.047.094s.047,0,.094-.094c.047-.283.094-.377.094-.424a.046.046,0,0,0-.047-.047,1.584,1.584,0,0,0-.471-.188.787.787,0,0,0-.989.471c-.188.754.8,1.083.659,1.7a.42.42,0,0,1-.518.283.508.508,0,0,1-.377-.612c0-.047,0-.094-.047-.094s-.047.047-.094.094L54,40.081A1.112,1.112,0,0,0,54.565,40.363Z" transform="translate(-28.565 -19.97)" fill="#2a7de1"/>
  <path id="Trazado_433" data-name="Trazado 433" d="M58.594,41.32a4.445,4.445,0,0,1,.424.141,2.039,2.039,0,0,0,.518.188c.047,0,.094,0,.094-.047s0-.047-.047-.047c-.188-.047-.283-.141-.235-.283l.235-.706L59.819,40c.188-.471.235-.612.283-.706.047-.141.141-.141.283-.094h.094c0-.047,0-.047-.094-.094a4.446,4.446,0,0,1-.424-.141,3.735,3.735,0,0,0-.424-.188.065.065,0,0,0-.094,0c0,.047,0,.047.047.094.188.047.188.141.141.235s-.047.188-.235.706l-.236.565q-.212.495-.283.706c-.047.141-.141.141-.283.094H58.5C58.5,41.273,58.547,41.32,58.594,41.32Z" transform="translate(-30.946 -20.502)" fill="#2a7de1"/>
  <path id="Trazado_434" data-name="Trazado 434" d="M62.3,42.821c0,.047,0,.047.047.094.141.047.33.188.377.188a6.972,6.972,0,0,0,.612.377,1.423,1.423,0,0,0,2.072-.424c.471-.848,0-1.507-.895-1.978l-.471-.235c-.094-.047-.283-.188-.424-.283-.047-.047-.094-.047-.094,0s0,.047.047.094q.283.141.141.283c-.047.094-.094.188-.377.659l-.283.518c-.424.754-.471.8-.612.706Q62.3,42.75,62.3,42.821Zm.989-.188.8-1.413c.047-.094.094-.094.283,0a1.194,1.194,0,0,1,.565,1.7.962.962,0,0,1-1.507.424C63.054,43.1,63.054,43.009,63.289,42.633Z" transform="translate(-32.956 -21.438)" fill="#2a7de1"/>
  <path id="Trazado_435" data-name="Trazado 435" d="M68.072,47.461a.065.065,0,0,0-.094,0c-.047.047,0,.047.047.094.141.094.283.236.33.236.094.047.188.188.283.235.047.047.047.047.094,0,0-.047,0-.047-.047-.094-.094-.094-.094-.141-.047-.141,0-.047.094-.094.188-.141l.33-.188H69.2l.659.612v.047l-.188.612c0,.047-.141-.047-.188-.094-.047,0-.047-.047-.094,0a.173.173,0,0,0,.047.141,1.993,1.993,0,0,0,.33.235c.094.047.188.188.235.235.094.094.141.094.188.094v-.094c-.141-.094-.094-.33,0-.518.141-.565.612-1.978.706-2.214q.071-.141,0-.141c-.047-.047-.094,0-.188.047l-2.072,1.083C68.355,47.6,68.261,47.6,68.072,47.461Zm2.214-.612h0l-.33.989-.565-.471Z" transform="translate(-35.95 -24.524)" fill="#2a7de1"/>
  <path id="Trazado_436" data-name="Trazado 436" d="M73.671,51.543c-.047-.047-.094-.094-.094-.047-.047,0,0,.047,0,.094.094.094.236.283.283.33.094.141.283.424.424.612a1.356,1.356,0,0,0,2.072.33c.706-.612.565-1.366-.141-2.214a2.088,2.088,0,0,1-.33-.424,1.182,1.182,0,0,0-.33-.377.146.146,0,0,0-.094-.047c-.047,0,0,.047,0,.094.094.141.141.236,0,.33-.094.047-.141.141-.565.471l-.471.377C73.812,51.637,73.765,51.637,73.671,51.543Zm.848.094L75.79,50.6c.094-.094.094-.094.283.094a1.191,1.191,0,0,1-.094,1.79.948.948,0,0,1-1.554-.141C74.142,52.014,74.189,51.919,74.518,51.637Z" transform="translate(-38.91 -26.345)" fill="#2a7de1"/>
  <path id="Trazado_437" data-name="Trazado 437" d="M81.14,63.265a.173.173,0,0,0,.141.047,1.115,1.115,0,0,0,.471-.141.046.046,0,0,0,.047-.047c0-.047-.047-.047-.094-.047-.283.047-.471-.047-.659-.518a1.109,1.109,0,0,1,.706-1.507.984.984,0,0,1,1.413.471c.188.377.188.8-.141.989-.047.047-.094.047-.047.094,0,.047.047.047.094,0a1.709,1.709,0,0,0,.33-.141.356.356,0,0,1,.188-.047c.047,0,.047-.047.047-.094a6.207,6.207,0,0,0-.235-.848,1.4,1.4,0,0,0-1.837-.895,1.46,1.46,0,0,0-.659,2.072A.929.929,0,0,0,81.14,63.265Z" transform="translate(-42.705 -31.991)" fill="#2a7de1"/>
  <path id="Trazado_438" data-name="Trazado 438" d="M82.094,67.347a.046.046,0,0,0-.047-.047c-.047,0-.047.047-.047.094a3.837,3.837,0,0,1,.094.424c.047.094.047.235.094.377a.046.046,0,0,0,.047.047c.047,0,.047-.047,0-.094-.047-.094,0-.141.047-.141h.235l.377.047a.046.046,0,0,1,.047.047l.188.8v.047l-.518.377c-.047,0-.094-.141-.094-.188a.046.046,0,0,0-.047-.047q-.071,0,0,.141c0,.047.094.283.094.377s.047.235.047.33c.047.141.047.188.094.188s.047-.047.047-.094c-.047-.141.094-.283.283-.424.471-.33,1.7-1.225,1.884-1.366.094-.047.094-.094.094-.141s-.047-.047-.188-.094l-2.355-.33C82.236,67.63,82.141,67.583,82.094,67.347Zm2.119.848h0l-.895.612L83.13,68.1Z" transform="translate(-43.378 -35.602)" fill="#2a7de1"/>
  <path id="Trazado_439" data-name="Trazado 439" d="M85.767,73.2c-.047,0-.094,0-.047.047a.046.046,0,0,0,.047.047c.141,0,.188.094.235.377l.047.518-1.743.141c-.565.047-.612,0-.612-.188,0-.047,0-.094-.047-.047-.047,0-.047.047-.047.094,0,.141.047.377.047.424a2.941,2.941,0,0,0,.047.565.165.165,0,0,0,.047.094c.047,0,.047-.047.047-.094-.047-.283,0-.33.565-.377l1.7-.141.047.424c0,.33-.047.377-.188.424a.164.164,0,0,0-.094.047c0,.047.047.047.094.047h.377c.094,0,.094,0,.094-.047a1.15,1.15,0,0,1-.047-.33l-.141-1.554a1.671,1.671,0,0,1,.047-.33c0-.047,0-.047-.094-.047C86.143,73.247,85.861,73.2,85.767,73.2Z" transform="translate(-44.224 -38.723)" fill="#2a7de1"/>
  <path id="Trazado_440" data-name="Trazado 440" d="M86.745,81.868a4.533,4.533,0,0,0-.424-.706A1.345,1.345,0,0,0,85.1,79.8a1.361,1.361,0,0,0-1.507,1.319,1.42,1.42,0,0,0,1.319,1.6,1.271,1.271,0,0,0,1.413-1.272,5.6,5.6,0,0,1,.188.659c0,.047.047.047.094.047a.362.362,0,0,0,.141-.094C86.745,81.962,86.792,81.915,86.745,81.868Zm-.612-.659a1.069,1.069,0,0,1-1.319.895c-.989-.094-1.036-.659-1.036-.895.047-.659.659-.989,1.366-.942C85.991,80.36,86.18,80.831,86.133,81.208Z" transform="translate(-44.213 -42.21)" fill="#2a7de1"/>
  <path id="Trazado_441" data-name="Trazado 441" d="M84.985,87.706c-.047.236-.094.236-.518.141l-1.319-.377c-.565-.141-.612-.188-.565-.377,0-.047,0-.094-.047-.094s-.047,0-.094.094a1.748,1.748,0,0,0-.094.424c-.094.283-.141.471-.283.989-.047.188-.047.235.047.235a3.734,3.734,0,0,1,.424.188c.047,0,.094,0,.094-.047a.046.046,0,0,0-.047-.047c-.235-.094-.283-.188-.188-.565.094-.424.141-.471.612-.33l1.319.33c.424.094.424.141.377.377,0,.047,0,.094.047.094s.047,0,.047-.094a2.073,2.073,0,0,0,.094-.471,4.362,4.362,0,0,1,.141-.471v-.094A.164.164,0,0,0,84.985,87.706Z" transform="translate(-43.396 -46.024)" fill="#2a7de1"/>
  <path id="Trazado_442" data-name="Trazado 442" d="M83.379,93.236c-.094.188-.141.188-.283.141-.094-.047-.188-.094-.659-.283l-.565-.235q-.495-.212-.706-.283c-.141-.094-.141-.141-.094-.283V92.2c-.047,0-.047,0-.094.047a2.218,2.218,0,0,0-.141.424c-.047.094-.141.283-.235.518v.094c.047,0,.047,0,.094-.047.094-.188.141-.283.283-.235s.377.141.706.283l.565.235c.471.188.565.235.659.283.141.047.141.141.094.283v.094c.047,0,.047,0,.094-.094.047-.141.141-.33.141-.377a3.737,3.737,0,0,0,.188-.424c.047-.047.047-.094,0-.094C83.426,93.142,83.426,93.189,83.379,93.236Z" transform="translate(-42.637 -48.775)" fill="#2a7de1"/>
  <path id="Trazado_443" data-name="Trazado 443" d="M80.108,96.955a1.443,1.443,0,0,0-2.072.706,1.811,1.811,0,0,0-.235.565.173.173,0,0,0,.047.141c.094.094.33.283.377.33h.094c0-.047,0-.047-.047-.094-.188-.235-.236-.424.047-.848a1.076,1.076,0,0,1,1.6-.33.964.964,0,0,1,.471,1.413c-.188.33-.565.659-.895.471-.047-.047-.094-.047-.094,0s0,.047.047.094a2.049,2.049,0,0,0,.33.188.583.583,0,0,1,.141.094c.047,0,.047,0,.094-.047a3.876,3.876,0,0,0,.518-.706A1.493,1.493,0,0,0,80.108,96.955Z" transform="translate(-41.156 -51.174)" fill="#2a7de1"/>
  <path id="Trazado_444" data-name="Trazado 444" d="M75.084,101.443c-.141-.235-.141-.33,0-.471.047,0,.047-.047,0-.094,0-.047-.047,0-.094.047a2.389,2.389,0,0,1-.283.33c-.047.094-.188.188-.235.283-.047.047-.047.047,0,.094.047,0,.047,0,.094-.047.094-.094.141-.094.141-.047.047,0,.094.094.141.188l.188.33v.047l-.565.659h-.047l-.612-.188c-.047,0,.047-.141.094-.188,0-.047.047-.047,0-.094s-.094,0-.141.047-.188.235-.235.283c-.047.094-.188.188-.236.236-.094.094-.094.141-.094.188h.094c.094-.141.33-.094.518,0,.565.188,1.978.659,2.214.706q.141.071.141,0c.047-.047,0-.094-.047-.188Zm.612,1.7h0l-1.036-.377.471-.565.565.942Z" transform="translate(-38.722 -53.355)" fill="#2a7de1"/>
  <path id="Trazado_445" data-name="Trazado 445" d="M24.561,110.426c-.188-.094-.377-.235-.471-.283s-.283-.188-.424-.283c-.047-.047-.094-.047-.094,0s0,.047.047.094c.188.094.188.188.141.283s-.094.188-.377.659l-.33.518c-.424.754-.518.754-.612.706s-.094-.047-.141,0c0,.047,0,.047.047.094a1.3,1.3,0,0,1,.377.235c.141.094.377.283.612.424a1.38,1.38,0,0,0,2.072-.377C25.88,111.6,25.456,110.944,24.561,110.426Zm.377,1.837a.956.956,0,0,1-1.507.377c-.377-.235-.377-.33-.141-.706l.848-1.366c.047-.094.094-.094.283,0A1.212,1.212,0,0,1,24.938,112.262Z" transform="translate(-11.796 -58.098)" fill="#2a7de1"/>
  <path id="Trazado_446" data-name="Trazado 446" d="M32.514,114.247c-.047,0-.706-.283-.8-.283a2.417,2.417,0,0,0-.471-.188.065.065,0,0,0-.094,0c0,.047,0,.047.047.094.188.047.235.141.188.283-.047.094-.047.188-.236.706l-.188.565a4.884,4.884,0,0,1-.188.471c-.141.377-.188.377-.377.33-.047,0-.094,0-.094.047s0,.047.047.094a2.218,2.218,0,0,0,.424.141,8.493,8.493,0,0,0,.989.377.173.173,0,0,0,.141-.047c.047-.047.141-.283.188-.33,0-.047.047-.094,0-.094s-.047,0-.094.047c-.094.141-.141.188-.236.188s-.33-.094-.424-.094c-.235-.094-.283-.094-.188-.33.047-.094.141-.377.283-.754h.047a1.674,1.674,0,0,1,.424.188.189.189,0,0,1,.094.283.046.046,0,0,0,.047.047c.047,0,.047-.047.094-.047.047-.188.188-.377.188-.424v-.047a.146.146,0,0,0-.094.047,1.243,1.243,0,0,1-.33-.047,1.126,1.126,0,0,1-.33-.141v-.047l.33-.895h0c.659.235.659.283.612.471v.094c.047,0,.047,0,.094-.047.094-.283.188-.33.188-.424v-.047C32.7,114.295,32.608,114.295,32.514,114.247Z" transform="translate(-16.028 -60.178)" fill="#2a7de1"/>
  <path id="Trazado_447" data-name="Trazado 447" d="M42.587,116.574a4.739,4.739,0,0,0-.848-.188,1.361,1.361,0,0,0-1.648,1.177c-.094.989.612,1.507,1.507,1.6a1.552,1.552,0,0,0,.659,0c.047-.047.094-.047.094-.094a2.539,2.539,0,0,0,.141-.471c0-.047,0-.047-.047-.047s-.047,0-.094.047c-.094.283-.283.377-.8.33a1.049,1.049,0,0,1-.942-1.319c.094-.659.424-1.036,1.083-.989.424.047.8.235.8.612,0,.047,0,.094.047.094s.047-.047.047-.094.047-.236.047-.377.047-.141.047-.188S42.681,116.574,42.587,116.574Z" transform="translate(-21.203 -61.562)" fill="#2a7de1"/>
  <path id="Trazado_448" data-name="Trazado 448" d="M50.956,118.643c-.188.047-.283,0-.33-.141s-.047-.424-.094-.754l-.047-.612a6.945,6.945,0,0,1-.047-.754c0-.141.047-.188.188-.188a.164.164,0,0,0,.094-.047c0-.047-.047-.047-.094-.047-.141,0-.377.047-.424.047-.094,0-.33.047-.518.047a.164.164,0,0,0-.094.047c0,.047.047.047.094.047.188,0,.283,0,.283.141,0,.094.047.188.094.706v.141h0l-1.319.141h0v-.141a3.564,3.564,0,0,0-.094-.754c0-.141.047-.188.188-.188a.164.164,0,0,0,.094-.047c0-.047-.047-.047-.094-.047-.141,0-.33.047-.424.047s-.33.047-.518.047a.164.164,0,0,0-.094.047c0,.047.047.047.094.047.188,0,.283,0,.283.141a4.268,4.268,0,0,0,.094.754l.094.612a5.2,5.2,0,0,1,.047.754c0,.141-.047.188-.188.235-.047,0-.047,0-.047.047s.047.047.094.047c.141,0,.377-.047.424-.047.094,0,.33-.047.565-.047a.164.164,0,0,0,.094-.047c0-.047-.047-.047-.094-.047-.188.047-.283,0-.33-.141s-.047-.424-.094-.754v-.188h0l1.319-.141h0v.235a5.2,5.2,0,0,1,.047.754c0,.141,0,.188-.188.235-.047,0-.094,0-.094.047s.047.047.094.047c.141,0,.377-.047.424-.047a2.942,2.942,0,0,0,.565-.047.164.164,0,0,0,.094-.047C51,118.643,51,118.643,50.956,118.643Z" transform="translate(-25.285 -61.418)" fill="#2a7de1"/>
  <path id="Trazado_449" data-name="Trazado 449" d="M57.79,117.315c-.188.047-.283.047-.33-.047l-.236-.706L57.036,116a5.169,5.169,0,0,1-.188-.706c-.047-.141,0-.188.141-.235.047,0,.047-.047.047-.094s-.047-.047-.094,0a4.445,4.445,0,0,0-.424.141c-.094.047-.33.094-.424.141a.1.1,0,0,0-.094.094c0,.047.047.047.094.047.188-.047.235,0,.283.094s.047.188.235.706l.188.565a4.016,4.016,0,0,1,.188.706c.047.141,0,.188-.141.236a.046.046,0,0,0-.047.047c0,.047.047.047.094.047a2.217,2.217,0,0,1,.424-.141,3.821,3.821,0,0,1,.518-.141c.047,0,.094-.047.047-.094C57.884,117.315,57.837,117.315,57.79,117.315Z" transform="translate(-29.623 -60.796)" fill="#2a7de1"/>
  <path id="Trazado_450" data-name="Trazado 450" d="M63.174,114.715c0-.047-.047-.047-.094-.047s-.047.047,0,.094c.047.236.047.33-.283.518-.377.188-.424.141-.659-.283l-.565-1.225c-.188-.424-.141-.424.047-.518.047-.047.047-.047.047-.094s-.047-.047-.094,0c-.141.047-.377.188-.424.188a2.973,2.973,0,0,0-.424.188c-.047,0-.094.047-.047.094,0,.047.047.047.094,0,.236-.094.236-.047.424.33l.565,1.225c.236.518.236.565.047.659-.047,0-.047.047-.047.094s.047.047.094,0a1.38,1.38,0,0,0,.377-.188c.283-.141.471-.188.942-.424.188-.094.188-.094.188-.188A1.066,1.066,0,0,1,63.174,114.715Z" transform="translate(-32.088 -59.844)" fill="#2a7de1"/>
  <path id="Trazado_451" data-name="Trazado 451" d="M68.385,111.319c-.047-.047-.047-.047-.094-.047s-.047.047,0,.094a.3.3,0,0,1,0,.283c-.047.094-.283.235-.33.283-.188.141-.235.141-.377-.047-.047-.094-.235-.33-.424-.659v-.047c.047,0,.33-.236.424-.236.141-.094.236,0,.283.094a.067.067,0,0,0,.094-.094c-.094-.141-.188-.377-.235-.424,0-.047-.047-.047-.047,0a.146.146,0,0,1-.047.094c0,.047-.047.094-.235.236a1.291,1.291,0,0,1-.33.188h-.047l-.518-.754v-.047c.565-.377.612-.377.754-.188a.164.164,0,0,0,.094.047c.047,0,.047-.047,0-.094-.141-.235-.188-.33-.236-.424,0,0-.047-.047-.047,0a.352.352,0,0,1-.141.141,5.258,5.258,0,0,1-.754.471c-.094.047-.283.188-.424.283-.047.047-.047.047-.047.094s.047.047.094,0c.141-.094.235-.094.33,0,.047.094.141.188.424.612l.33.518.283.424c.236.33.236.377.047.471-.047,0-.047.047-.047.094s.047.047.094,0a1.652,1.652,0,0,1,.377-.235c.33-.188.612-.377.895-.565a.173.173,0,0,0,.047-.141A1.846,1.846,0,0,0,68.385,111.319Z" transform="translate(-34.755 -57.956)" fill="#2a7de1"/>
  <path id="Trazado_452" data-name="Trazado 452" d="M212.1,104.985a2.882,2.882,0,0,1,5.746-.047,2.759,2.759,0,0,1-2.873,2.685A2.722,2.722,0,0,1,212.1,104.985Z" transform="translate(-112.2 -54.117)" fill="#54565a"/>
  <rect id="Rectngulo_1155" data-name="Rectngulo 1155" width="189.857" height="0.659" transform="translate(52.423 37.208)" fill="#54565a"/>
  <g id="Grupo_200" data-name="Grupo 200" transform="translate(52.423 41.636)">
    <g id="Grupo_198" data-name="Grupo 198">
      <path id="Trazado_453" data-name="Trazado 453" d="M111.3,99.927V89h4.427V99.692c0,2.967.942,4.286,3.58,4.286,2.59,0,3.721-1.13,3.721-4.427V89h4.427V99.786c0,4.9-2.967,7.395-8.148,7.395C114.173,107.18,111.3,104.684,111.3,99.927Z" transform="translate(-111.3 -88.717)" fill="#2a7de1"/>
      <path id="Trazado_454" data-name="Trazado 454" d="M148.6,97.726v-.188c0-5.416,4.1-9.137,9.608-9.137,4.663,0,8.1,2.119,8.572,6.5h-4.474c-.33-2.167-1.6-3.3-4.051-3.3-3.061,0-4.993,2.214-4.993,5.887v.188c0,3.721,1.837,5.84,5.04,5.84,2.4,0,4.1-1.13,4.427-3.438h4.286c-.471,4.427-3.909,6.735-8.666,6.735C151.991,106.863,148.6,103.236,148.6,97.726Z" transform="translate(-131.032 -88.4)" fill="#2a7de1"/>
    </g>
    <g id="Grupo_199" data-name="Grupo 199" transform="translate(64.667 0.047)">
      <path id="Trazado_455" data-name="Trazado 455" d="M268,94.34h-.848c-.612-3.58-3.956-4.9-7.253-4.9a7.085,7.085,0,0,0-7.206,7.442c0,4.663,2.967,8.949,7.724,8.949A9.593,9.593,0,0,0,268,101.358v2.92a14.744,14.744,0,0,1-8.478,2.59c-9.514,0-10.927-6.688-10.927-9.373,0-4.051,3.156-9,11.681-9a26.181,26.181,0,0,1,7.677,1.413V94.34Z" transform="translate(-248.6 -88.5)" fill="#8a1a9b"/>
      <path id="Trazado_456" data-name="Trazado 456" d="M293.9,106.754c1.6,0,2.072-.565,2.072-1.837V93.9c0-1.272-.424-1.79-2.072-1.837V91.4h7.253v.659c-1.6.047-2.072.565-2.072,1.837v4.569h9.326V93.9c0-1.272-.471-1.79-2.072-1.837V91.4h7.253v.659c-1.6.047-2.072.565-2.072,1.837v11.021c0,1.272.471,1.79,2.072,1.837v.659h-7.253v-.659c1.6,0,2.072-.565,2.072-1.837V99.36h-9.326v5.558c0,1.272.424,1.79,2.072,1.837v.659H293.9Z" transform="translate(-272.564 -90.034)" fill="#8a1a9b"/>
      <path id="Trazado_457" data-name="Trazado 457" d="M346.476,99.213a9.337,9.337,0,0,1-1.648-.141V92.1a6.616,6.616,0,0,1,1.083-.094,3.876,3.876,0,0,1,4.145,4.1c0,2.214-1.319,3.109-3.579,3.109m16.673-7.206v-.659H355.9v.659c1.6.047,2.072.565,2.072,1.837v11.021a1.772,1.772,0,0,1-1.648,1.648,6.511,6.511,0,0,1-3.862-3.014l-2.638-4.1a4.209,4.209,0,0,0,3.438-3.909c0-2.214-1.366-4.192-5.7-4.192-1.6,0-6.782.047-7.96,0v.659c1.6.047,2.072.565,2.072,1.837v11.021c0,1.272-.424,1.79-2.072,1.837v.659h7.253V106.7c-1.6,0-2.072-.565-2.072-1.837V99.872c1.648,0,2.025-.141,3.061,1.884l.989,1.884c1.413,2.685,2.779,3.721,6.076,3.721h8.2V106.7c-1.6,0-2.072-.565-2.072-1.837V93.843c.047-1.272.471-1.79,2.12-1.837" transform="translate(-296.74 -89.981)" fill="#8a1a9b"/>
      <path id="Trazado_458" data-name="Trazado 458" d="M433.339,91.083v.659c1.743,0,2.025.565,2.072,1.931l.047,3.25c0,.989.047,1.884.047,3.156,0,3.909-1.46,6.453-5.558,6.453-2.638,0-4.9-1.837-4.9-5.228V93.579c0-1.272.424-1.79,1.978-1.837v-.659l-21.854.047a21.343,21.343,0,0,0-3.721-.33c-5.558,0-6.264,3.532-6.264,4.71,0,4.993,9.09,4.8,9.09,8.431,0,1.225-1.177,2.685-3.627,2.685a5.016,5.016,0,0,1-4.757-3.768H395v3.909a25.783,25.783,0,0,0,5.511.754c4.145,0,6.217-2.119,6.217-4.757,0-5.04-9.231-5.322-9.231-8.619,0-1.225,1.177-2.5,3.2-2.4,4.757.283,4.427,3.815,4.427,3.815h.942s-.612-3.25,3.344-3.25h2.826v12.434c0,1.272-.471,1.79-2.072,1.837v.659h7.253v-.8c-1.6,0-2.072-.565-2.072-1.837V92.213h3.3c1.837,0,3.109.424,3.391,2.779v5.793c0,4.8,3.344,6.641,7.677,6.641,5.181,0,6.641-3.3,6.688-6.594l.094-7.253c.047-1.272.424-1.79,1.978-1.837v-.659Z" transform="translate(-326.047 -89.717)" fill="#8a1a9b"/>
      <path id="Trazado_459" data-name="Trazado 459" d="M489.447,102.657h.848a4.976,4.976,0,0,0,4.757,3.768c2.449,0,3.627-1.413,3.627-2.685,0-3.627-9.09-3.438-9.09-8.431,0-1.13.707-4.71,6.264-4.71a17.787,17.787,0,0,1,4.663.565v4h-.848c-.283-2.308-1.931-3.721-4.569-3.721-2.025,0-3.2,1.177-3.2,2.4,0,3.3,9.231,3.58,9.231,8.619,0,2.638-2.072,4.757-6.217,4.757a23.109,23.109,0,0,1-5.511-.754v-3.815Z" transform="translate(-375.985 -89.611)" fill="#8a1a9b"/>
    </g>
    <path id="Trazado_460" data-name="Trazado 460" d="M212.1,104.985a2.882,2.882,0,0,1,5.746-.047,2.759,2.759,0,0,1-2.873,2.685A2.722,2.722,0,0,1,212.1,104.985Z" transform="translate(-164.623 -95.753)" fill="#54565a"/>
  </g>
  <g id="Grupo_202" data-name="Grupo 202" transform="translate(250.663 13.8)">
    <path id="Trazado_461" data-name="Trazado 461" d="M541.714,53.545A25.151,25.151,0,0,0,559.659,46.1V34.8H544.022V46.528H532.2v5.134A24.839,24.839,0,0,0,541.714,53.545Z" transform="translate(-532.2 -32.21)" fill="#8a1a9b"/>
    <path id="Trazado_462" data-name="Trazado 462" d="M559.759,59.8A21.324,21.324,0,0,1,539.6,73.459a21.8,21.8,0,0,1-7.3-1.272v3.25h11.822V87.212h15.637V75.437h11.681V59.8Z" transform="translate(-532.253 -45.435)" fill="#8a1a9b"/>
    <g id="Grupo_201" data-name="Grupo 201" transform="translate(11.869 12.811)">
      <path id="Trazado_463" data-name="Trazado 463" d="M572.519,58.054a18.74,18.74,0,0,0-7.395-1.554,19.182,19.182,0,0,0-7.724,1.554v6.876A24.88,24.88,0,0,0,572.519,58.054Z" transform="translate(-557.4 -56.5)" fill="#c791cd"/>
      <path id="Trazado_464" data-name="Trazado 464" d="M586.8,60.2a21.65,21.65,0,0,1-3.2,5.464A20.335,20.335,0,0,1,598.53,75.7C597.965,69.431,593.208,63.167,586.8,60.2Z" transform="translate(-571.26 -58.457)" fill="#c791cd"/>
    </g>
    <path id="Trazado_465" data-name="Trazado 465" d="M532.3,93c3.2,6.594,10.032,8.9,17.568,8.9a22.4,22.4,0,0,0,9.844-2.214v7.442a22.868,22.868,0,0,1-8.525,1.554c-10.833,0-17.945-6.641-18.887-15.684Z" transform="translate(-532.253 -62.998)" fill="#c791cd"/>
    <path id="Trazado_466" data-name="Trazado 466" d="M590.6,43.665a22.562,22.562,0,0,1,16.485-7.489,21.206,21.206,0,0,1,8.76,1.884V30.619A18.062,18.062,0,0,0,609.11,29.3c-8.384,0-15.543,5.746-18.51,13.847v.518Z" transform="translate(-563.094 -29.3)" fill="#c791cd"/>
  </g>
</svg>
