<svg id="Grupo_81" data-name="Grupo 81" xmlns="http://www.w3.org/2000/svg" width="158.664" height="69.029" viewBox="0 0 158.664 69.029">
  <rect id="Rectángulo_53" data-name="Rectángulo 53" width="7.061" height="34.941" transform="translate(34.673 13.21)" fill="#ae38ab"/>
  <path id="Trazado_160" data-name="Trazado 160" d="M404.983,642.613v-1.064q0-3.44-4.119-3.44a5.1,5.1,0,0,0-3.6,1.154,6,6,0,0,0-1.223,1.855l-5.974-1.63a7.567,7.567,0,0,1,2.739-3.96q3.078-2.421,8.486-2.421,5.794,0,8.328,2.376,2.218,2.059,2.219,6.11v11.542a13.677,13.677,0,0,0,.973,5.272h-6.45a10.919,10.919,0,0,1-.5-2.511,13.727,13.727,0,0,1-3.62,2.511,12.394,12.394,0,0,1-4.844.838,8.976,8.976,0,0,1-5.906-1.834,6.913,6.913,0,0,1-2.4-5.634q0-4.346,3.145-6.337a15.387,15.387,0,0,1,5.884-1.81Zm0,4.435-4.957.747q-4.164.634-4.164,3.734a2.727,2.727,0,0,0,.815,2.082,3.568,3.568,0,0,0,2.558.86,6.739,6.739,0,0,0,3.96-1.153,3.966,3.966,0,0,0,1.788-3.441Z" transform="translate(-342.678 -610.257)" fill="#ae38ab"/>
  <path id="Trazado_161" data-name="Trazado 161" d="M473.477,658.409V633.945h6.767l.362,3.462q2.489-4.3,7.944-4.3,8.1,0,8.1,9.03v16.271h-7.037v-15.3q0-4.436-3.916-4.435a4.384,4.384,0,0,0-3.688,1.833,8.656,8.656,0,0,0-1.494,5.386v12.514Z" transform="translate(-398.885 -610.257)" fill="#ae38ab"/>
  <path id="Trazado_162" data-name="Trazado 162" d="M278.05,623.605a11.508,11.508,0,0,0-8.859-3.522,10.974,10.974,0,0,0-9.684,4.842l-.275-3.824h-7.951v39.589h8.558v-1.8h0v-11.38q2.834,4.292,8.557,4.292,6.572,0,9.985-4.375,3.494-4.429,3.493-12.16,0-7.621-3.823-11.665m-7.014,19.726a6.211,6.211,0,0,1-9.6-.5,11.308,11.308,0,0,1-1.761-6.714,12.758,12.758,0,0,1,1.4-6.575,5.752,5.752,0,0,1,5.2-3,5.873,5.873,0,0,1,4.54,1.788q2.336,2.586,2.338,7.648,0,4.87-2.118,7.346" transform="translate(-250.878 -601.582)" fill="#ae38ab"/>
  <g id="Grupo_79" data-name="Grupo 79" transform="translate(0 0)">
    <path id="Trazado_163" data-name="Trazado 163" d="M269.786,571.3c-1.987-.064-2.733,2.155-5.721,6.734h0s.734-4.329.791-5.789c.021-.549-.077-1.37-1.717-1.37-2.5,0-4.817,5.8-4.817,5.8s2.444-7.937-.412-7.937c-2.605,0-7.834,7.422-7.834,9.069,0,1.061,1.349.5,1.349.5s3.977-8.407,6.486-8.407c.965,0-2.373,13.353-2.373,13.353a.476.476,0,0,0,.521.656,1.2,1.2,0,0,0,1.023-.579s3.337-11.346,5.943-11.346a.362.362,0,0,1,.347.405c0,3.251-1.544,8.818-1.544,9.474,0,.208-.038.521.617.56a1.631,1.631,0,0,0,1.293-.83c1.081-1.872,4.747-8.162,4.747-8.162A34.264,34.264,0,0,0,267.422,581c0,1.119.846,1.312,1.881,1.312,1.536,0,4.409-5.441,4.409-5.441s-.695,5.268,2.1,5.268,3.357-3.068,3.357-3.068a.339.339,0,0,0-.444-.251s-1.621,2.2-2.45,2.2c-2.325,0-.405-8.317-.405-8.78a.7.7,0,0,0-.09-.361.769.769,0,0,0-.759-.411c-.747,0-3.471,9.744-5.673,9.744-.359,0-.521-.145-.521-.482C268.83,574.687,271.888,571.363,269.786,571.3Z" transform="translate(-250.075 -567.375)" fill="#ae38ab"/>
    <path id="Trazado_164" data-name="Trazado 164" d="M332.768,564.7c-.541-.143-1.2.249-1.209.643-.01.349.486.658.9.72.357.054.909-.038,1.029-.386C333.613,565.315,333.216,564.82,332.768,564.7Z" transform="translate(-304.352 -564.67)" fill="#4a4a4a"/>
  </g>
  <g id="Grupo_80" data-name="Grupo 80" transform="translate(11.664 50.029)">
    <text id="Urgencia_Ambulatorio" data-name="Urgencia+Ambulatorio" transform="translate(0 15)" fill="#ae38ab" font-size="15" font-family="SegoeUI, Segoe UI" letter-spacing="-0.02em"><tspan x="0" y="0">Urgencia+Ambulatorio</tspan></text>
  </g>
</svg>
