<svg id="Grupo_4" data-name="Grupo 4" xmlns="http://www.w3.org/2000/svg" width="101.147" height="67.617" viewBox="0 0 101.147 67.617">
  <rect id="Rectángulo_2" data-name="Rectángulo 2" width="7.088" height="35.076" transform="translate(34.807 13.261)" fill="#01b0d3"/>
  <path id="Trazado_1" data-name="Trazado 1" d="M951.134,997.7v-1.068q0-3.452-4.134-3.453a5.12,5.12,0,0,0-3.611,1.158,6.023,6.023,0,0,0-1.228,1.863l-6-1.636a7.6,7.6,0,0,1,2.749-3.976q3.09-2.43,8.518-2.431,5.816,0,8.36,2.385,2.226,2.068,2.228,6.134v11.587a13.735,13.735,0,0,0,.976,5.292h-6.475a10.947,10.947,0,0,1-.5-2.521,13.794,13.794,0,0,1-3.634,2.521,12.453,12.453,0,0,1-4.863.841,9.01,9.01,0,0,1-5.929-1.841,6.937,6.937,0,0,1-2.408-5.656q0-4.362,3.158-6.362a15.437,15.437,0,0,1,5.906-1.818Zm0,4.453-4.976.749q-4.18.636-4.18,3.748a2.736,2.736,0,0,0,.818,2.09,3.58,3.58,0,0,0,2.568.863,6.77,6.77,0,0,0,3.975-1.157,3.983,3.983,0,0,0,1.8-3.454Z" transform="translate(-888.59 -965.223)" fill="#01b0d3"/>
  <path id="Trazado_2" data-name="Trazado 2" d="M975.457,1013.56V989h6.793l.363,3.476q2.5-4.316,7.975-4.316,8.131,0,8.131,9.065v16.333h-7.064V998.2q0-4.452-3.931-4.453a4.4,4.4,0,0,0-3.7,1.841,8.689,8.689,0,0,0-1.5,5.406v12.563Z" transform="translate(-900.578 -965.223)" fill="#01b0d3"/>
  <path id="Trazado_3" data-name="Trazado 3" d="M896.286,985.481a11.551,11.551,0,0,0-8.893-3.535,11.015,11.015,0,0,0-9.721,4.861l-.277-3.839h-7.982v39.742h8.591v-1.8h0v-11.424q2.845,4.308,8.59,4.308,6.6,0,10.024-4.392,3.508-4.446,3.507-12.207,0-7.649-3.838-11.709m-7.041,19.8a6.235,6.235,0,0,1-9.639-.5,11.351,11.351,0,0,1-1.768-6.74,12.807,12.807,0,0,1,1.408-6.6,5.773,5.773,0,0,1,5.22-3.01,5.9,5.9,0,0,1,4.557,1.8q2.345,2.6,2.347,7.678,0,4.888-2.126,7.374" transform="translate(-869.01 -963.373)" fill="#01b0d3"/>
  <g id="Grupo_1" data-name="Grupo 1" transform="translate(0 0)">
    <path id="Trazado_4" data-name="Trazado 4" d="M888.625,960.013c-1.995-.063-2.743,2.164-5.743,6.76h0s.737-4.346.794-5.811c.022-.551-.077-1.375-1.724-1.375-2.511,0-4.835,5.817-4.835,5.817s2.453-7.968-.414-7.968c-2.615,0-7.864,7.451-7.864,9.1,0,1.065,1.353.5,1.353.5s3.993-8.44,6.51-8.44c.968,0-2.382,13.4-2.382,13.4a.478.478,0,0,0,.522.658,1.2,1.2,0,0,0,1.027-.581s3.35-11.39,5.966-11.39a.364.364,0,0,1,.348.407c0,3.264-1.549,8.852-1.549,9.511,0,.209-.039.523.62.562a1.636,1.636,0,0,0,1.3-.833c1.085-1.879,4.765-8.194,4.765-8.194a34.42,34.42,0,0,0-1.065,7.612c0,1.124.85,1.317,1.888,1.317,1.542,0,4.426-5.462,4.426-5.462s-.7,5.288,2.112,5.288,3.37-3.08,3.37-3.08a.341.341,0,0,0-.446-.251s-1.627,2.208-2.459,2.208c-2.335,0-.407-8.348-.407-8.813a.708.708,0,0,0-.09-.362.772.772,0,0,0-.762-.412c-.749,0-3.485,9.782-5.7,9.782-.361,0-.523-.145-.523-.485C887.667,963.418,890.736,960.08,888.625,960.013Z" transform="translate(-868.839 -956.076)" fill="#01b0d3"/>
    <path id="Trazado_5" data-name="Trazado 5" d="M908.94,955.53c-.544-.144-1.2.25-1.214.646-.01.35.487.66.9.723.358.054.912-.038,1.033-.387C909.79,956.147,909.391,955.65,908.94,955.53Z" transform="translate(-880.415 -955.5)" fill="#01b0d3"/>
  </g>
  <g id="Grupo_3" data-name="Grupo 3" transform="translate(12.292 54.4)">
    <g id="Grupo_2" data-name="Grupo 2">
      <path id="Trazado_6" data-name="Trazado 6" d="M888.55,1041.669a2.837,2.837,0,0,0,.247,1.238,2.229,2.229,0,0,0,.69.838,2.929,2.929,0,0,0,1.016.478,4.9,4.9,0,0,0,1.246.15,4.009,4.009,0,0,0,1.237-.167,2.484,2.484,0,0,0,.83-.433,1.568,1.568,0,0,0,.46-.609,1.838,1.838,0,0,0,.141-.7,1.507,1.507,0,0,0-.326-1.069,1.874,1.874,0,0,0-.716-.486,14.935,14.935,0,0,0-1.563-.469q-.892-.221-2.2-.574a4.717,4.717,0,0,1-1.352-.556,3.215,3.215,0,0,1-.857-.769,2.7,2.7,0,0,1-.451-.9,3.609,3.609,0,0,1-.132-.971,3.281,3.281,0,0,1,.4-1.653,3.547,3.547,0,0,1,1.051-1.157,4.619,4.619,0,0,1,1.485-.68,6.489,6.489,0,0,1,1.679-.221,6.608,6.608,0,0,1,1.864.256,4.6,4.6,0,0,1,1.537.768,3.646,3.646,0,0,1,1.44,3h-2.209a2.131,2.131,0,0,0-.83-1.723,3.3,3.3,0,0,0-1.891-.5,4.111,4.111,0,0,0-.8.08,2.521,2.521,0,0,0-.742.265,1.626,1.626,0,0,0-.556.5,1.541,1.541,0,0,0,.195,1.846,2.672,2.672,0,0,0,1.086.574l.557.151q.486.133,1.087.292l1.175.309q.573.15.821.221a3.689,3.689,0,0,1,1.078.53,3.412,3.412,0,0,1,.769.769,3.192,3.192,0,0,1,.459.927,3.41,3.41,0,0,1,.149.989,3.571,3.571,0,0,1-.432,1.811,3.681,3.681,0,0,1-1.139,1.228,4.96,4.96,0,0,1-1.608.7,7.671,7.671,0,0,1-1.838.221,7.55,7.55,0,0,1-2.032-.266,4.741,4.741,0,0,1-1.66-.813,3.97,3.97,0,0,1-1.132-1.4,4.687,4.687,0,0,1-.442-2.023Z" transform="translate(-886.341 -1032.958)" fill="#01b0d3"/>
      <path id="Trazado_7" data-name="Trazado 7" d="M911.266,1045.34a1.066,1.066,0,0,0,.1.529.408.408,0,0,0,.38.16h.212a1.334,1.334,0,0,0,.282-.035v1.4c-.071.023-.162.049-.274.079s-.227.056-.344.08-.236.041-.354.052-.218.018-.3.018a1.939,1.939,0,0,1-1.025-.247,1.228,1.228,0,0,1-.53-.866,3.561,3.561,0,0,1-1.475.848,5.79,5.79,0,0,1-1.687.265,4.125,4.125,0,0,1-1.184-.168,3.108,3.108,0,0,1-1-.495,2.37,2.37,0,0,1-.689-.83,2.561,2.561,0,0,1-.256-1.176,2.711,2.711,0,0,1,.309-1.378,2.289,2.289,0,0,1,.813-.83,3.67,3.67,0,0,1,1.131-.433q.627-.132,1.263-.2a10.311,10.311,0,0,1,1.042-.15,4.864,4.864,0,0,0,.874-.15,1.341,1.341,0,0,0,.6-.327.9.9,0,0,0,.221-.663,1.034,1.034,0,0,0-.185-.636,1.243,1.243,0,0,0-.459-.379,1.985,1.985,0,0,0-.61-.177,4.909,4.909,0,0,0-.636-.044,2.532,2.532,0,0,0-1.4.353,1.38,1.38,0,0,0-.619,1.1h-2.014a3.033,3.033,0,0,1,.424-1.466,2.932,2.932,0,0,1,.945-.936,3.886,3.886,0,0,1,1.3-.5,7.759,7.759,0,0,1,1.485-.141,6.263,6.263,0,0,1,1.325.141,3.779,3.779,0,0,1,1.176.459,2.553,2.553,0,0,1,.839.822,2.261,2.261,0,0,1,.317,1.229Zm-2.013-2.545a2.445,2.445,0,0,1-1.131.363q-.671.062-1.343.185a4.266,4.266,0,0,0-.618.151,1.847,1.847,0,0,0-.53.265,1.17,1.17,0,0,0-.362.442,1.511,1.511,0,0,0-.132.663.847.847,0,0,0,.194.565,1.419,1.419,0,0,0,.468.363,2.187,2.187,0,0,0,.6.185,3.75,3.75,0,0,0,.592.053,3.275,3.275,0,0,0,.725-.088,2.427,2.427,0,0,0,.733-.3,1.93,1.93,0,0,0,.574-.539,1.362,1.362,0,0,0,.23-.8Z" transform="translate(-891.336 -1034.456)" fill="#01b0d3"/>
      <path id="Trazado_8" data-name="Trazado 8" d="M918.393,1033.386h2.014V1046h-2.014Z" transform="translate(-895.882 -1033.085)" fill="#01b0d3"/>
      <path id="Trazado_9" data-name="Trazado 9" d="M932.9,1047.477h-1.979v-1.272h-.035a2.771,2.771,0,0,1-1.1,1.1,3,3,0,0,1-1.492.415,3.353,3.353,0,0,1-2.606-.892,3.916,3.916,0,0,1-.8-2.7v-5.8H926.9v5.6a2.477,2.477,0,0,0,.459,1.7,1.67,1.67,0,0,0,1.29.5,2.54,2.54,0,0,0,1.06-.194,1.859,1.859,0,0,0,.689-.521,1.993,1.993,0,0,0,.38-.786,4.068,4.068,0,0,0,.115-.99v-5.3H932.9Z" transform="translate(-897.814 -1034.561)" fill="#01b0d3"/>
      <path id="Trazado_10" data-name="Trazado 10" d="M948.244,1046h-1.908v-1.237H946.3a2.4,2.4,0,0,1-1.184,1.14,4.016,4.016,0,0,1-1.643.344,4.366,4.366,0,0,1-1.881-.379,3.732,3.732,0,0,1-1.334-1.034,4.415,4.415,0,0,1-.8-1.546,6.709,6.709,0,0,1-.265-1.917,6.128,6.128,0,0,1,.336-2.139,4.284,4.284,0,0,1,.892-1.484,3.453,3.453,0,0,1,1.273-.857,4.047,4.047,0,0,1,1.457-.274,4.875,4.875,0,0,1,.866.08,3.822,3.822,0,0,1,.849.256,3.382,3.382,0,0,1,.751.45,2.531,2.531,0,0,1,.574.646h.035v-4.665h2.014Zm-7.032-4.47a4.432,4.432,0,0,0,.15,1.148,3.125,3.125,0,0,0,.459,1.007,2.327,2.327,0,0,0,.786.708,2.292,2.292,0,0,0,1.131.265,2.266,2.266,0,0,0,1.157-.282,2.4,2.4,0,0,0,.794-.742,3.359,3.359,0,0,0,.46-1.034,4.642,4.642,0,0,0,.15-1.175,3.694,3.694,0,0,0-.681-2.367,2.241,2.241,0,0,0-1.846-.848,2.286,2.286,0,0,0-1.193.291,2.452,2.452,0,0,0-.795.76,3.145,3.145,0,0,0-.442,1.061A5.5,5.5,0,0,0,941.212,1041.531Z" transform="translate(-902.076 -1033.085)" fill="#01b0d3"/>
      <path id="Trazado_11" data-name="Trazado 11" d="M963.6,1033.386h5.565a5.3,5.3,0,0,1,2.191.389,3.475,3.475,0,0,1,1.308.972,3.311,3.311,0,0,1,.627,1.273,5.41,5.41,0,0,1,.168,1.272,5.3,5.3,0,0,1-.168,1.263,3.313,3.313,0,0,1-.627,1.263,3.39,3.39,0,0,1-1.308.964,5.394,5.394,0,0,1-2.191.38H965.81V1046H963.6Zm2.208,5.973h3.234a2.9,2.9,0,0,0,.76-.106,2.173,2.173,0,0,0,.716-.345,1.771,1.771,0,0,0,.53-.636,2.191,2.191,0,0,0,.2-1,2.6,2.6,0,0,0-.176-1.025,1.646,1.646,0,0,0-.478-.645,1.7,1.7,0,0,0-.689-.327,3.741,3.741,0,0,0-.831-.088H965.81Z" transform="translate(-909.341 -1033.085)" fill="#01b0d3"/>
      <path id="Trazado_12" data-name="Trazado 12" d="M980.558,1033.386h2.014V1046h-2.014Z" transform="translate(-914.388 -1033.085)" fill="#01b0d3"/>
      <path id="Trazado_13" data-name="Trazado 13" d="M995.07,1047.477h-1.978v-1.272h-.035a2.772,2.772,0,0,1-1.1,1.1,3,3,0,0,1-1.493.415,3.353,3.353,0,0,1-2.606-.892,3.92,3.92,0,0,1-.8-2.7v-5.8h2.015v5.6a2.473,2.473,0,0,0,.459,1.7,1.669,1.669,0,0,0,1.289.5,2.545,2.545,0,0,0,1.06-.194,1.871,1.871,0,0,0,.689-.521,2,2,0,0,0,.38-.786,4.078,4.078,0,0,0,.115-.99v-5.3h2.014Z" transform="translate(-916.32 -1034.561)" fill="#01b0d3"/>
      <path id="Trazado_14" data-name="Trazado 14" d="M1003.3,1044.439a1.515,1.515,0,0,0,.671,1.237,2.64,2.64,0,0,0,1.4.354,5.4,5.4,0,0,0,.645-.044,2.756,2.756,0,0,0,.681-.168,1.277,1.277,0,0,0,.521-.362.871.871,0,0,0,.185-.628.891.891,0,0,0-.282-.636,1.969,1.969,0,0,0-.681-.4,6.587,6.587,0,0,0-.945-.256q-.53-.107-1.077-.23a10.1,10.1,0,0,1-1.087-.3,3.5,3.5,0,0,1-.936-.477,2.2,2.2,0,0,1-.662-.769,2.444,2.444,0,0,1-.248-1.157,2.076,2.076,0,0,1,.362-1.245,2.78,2.78,0,0,1,.919-.813,4.028,4.028,0,0,1,1.237-.433,7.306,7.306,0,0,1,1.3-.124,5.971,5.971,0,0,1,1.351.15,3.681,3.681,0,0,1,1.166.486,2.846,2.846,0,0,1,.866.874,3.031,3.031,0,0,1,.433,1.3h-2.1a1.257,1.257,0,0,0-.663-.972,2.756,2.756,0,0,0-1.193-.247,4.207,4.207,0,0,0-.5.036,2.322,2.322,0,0,0-.548.132,1.148,1.148,0,0,0-.433.283.675.675,0,0,0-.177.485.769.769,0,0,0,.256.6,2.023,2.023,0,0,0,.672.38,6.656,6.656,0,0,0,.945.256q.53.105,1.1.229a11.111,11.111,0,0,1,1.078.3,3.471,3.471,0,0,1,.946.477,2.325,2.325,0,0,1,.671.76,2.3,2.3,0,0,1,.256,1.131,2.457,2.457,0,0,1-.371,1.378,2.938,2.938,0,0,1-.963.919,4.383,4.383,0,0,1-1.317.512,6.655,6.655,0,0,1-1.431.159,6.243,6.243,0,0,1-1.6-.194,3.743,3.743,0,0,1-1.272-.592,2.855,2.855,0,0,1-.848-.99,3.139,3.139,0,0,1-.327-1.4Z" transform="translate(-920.559 -1034.456)" fill="#01b0d3"/>
    </g>
  </g>
</svg>
